<?xml version="1.0" encoding="UTF-8"?>
<svg id="Layer_1" xmlns="http://www.w3.org/2000/svg" viewBox="0 0 200 200">
    <defs>
        <style>.cls-1{fill:#0c73b2;}</style>
    </defs>
    <path class="cls-1"
        d="M132.0046,147.77048l2.40426,2.40408c2.70566,2.70567,7.10958,2.70567,9.81525,0l6.33716-6.33716c2.70234-2.70401,2.70234-7.10642-.00167-9.8121l-2.40575-2.40575c-.35534-.35534-.42377-.9128-.15973-1.32338,3.62982-5.66738,6.2003-11.85767,7.63784-18.39528.11249-.51022.54928-.86556,1.06268-.86556h3.38697c3.8271,0,6.9402-3.11309,6.9402-6.94019v-8.95972c0-3.82526-3.1131-6.93852-6.9402-6.93852h-3.38697c-.5134,0-.95018-.35534-1.06268-.86389-1.43921-6.54245-4.00802-12.73124-7.63784-18.39678-.26404-.41075-.19561-.96988.1614-1.32672l2.40575-2.40575c2.70234-2.70417,2.70234-7.10659-.00167-9.81226l-6.33549-6.33533c-2.70401-2.70417-7.10641-2.70734-9.81692,0l-2.40092,2.40408c-.35701.35534-.9143.42544-1.32672.1614-5.66721-3.62982-11.85767-6.2003-18.39528-7.63784-.51022-.11249-.8654-.54928-.8654-1.06268v-3.38697c0-3.8271-3.11325-6.94019-6.93868-6.94019h-8.96039c-3.8271,0-6.94019,3.11309-6.94019,6.94019v3.38697c0,.5134-.35534.95018-.86389,1.06268-6.54095,1.43921-12.72974,4.00802-18.39612,7.63784-.40992.26554-.96737.19711-1.32588-.1614l-2.40408-2.40408c-2.70566-2.70567-7.10809-2.70567-9.81376,0l-6.33549,6.33533c-1.31136,1.31053-2.03337,3.053-2.03337,4.9078,0,1.85313.72201,3.5956,2.03337,4.90596l2.40241,2.40258c.35784.35851.42627.91764.1639,1.32839-3.63065,5.66387-6.20114,11.85433-7.63951,18.39678-.11249.50856-.54845.86389-1.06184.86389h-3.38781c-3.8271,0-6.94019,3.11325-6.94019,6.93852v8.95972c0,3.8271,3.11309,6.94019,6.94019,6.94019h3.38781c.5134,0,.94935.35534,1.06184.86389,1.43838,6.54079,4.00802,12.72957,7.63868,18.39695.26321.41058.19561.96804-.1614,1.32505l-2.40408,2.40408c-1.31136,1.31053-2.03337,3.05283-2.03337,4.9078,0,1.85313.72201,3.5956,2.03337,4.90596l6.33549,6.33549c2.70567,2.70567,7.1081,2.70567,9.81376,0l2.40408-2.40408c.35617-.35701.91346-.42377,1.32672-.15973,5.66554,3.62982,11.85433,6.19847,18.39695,7.63784.50772.11233.86222.54761.86222,1.06101v3.38864c0,3.82693,3.11309,6.94019,6.94019,6.94019h8.96039c3.82543,0,6.93868-3.11325,6.93868-6.94019v-3.38864c0-.5134.35517-.94868.86373-1.06101,6.53928-1.43771,12.72974-4.00802,18.39695-7.63784.41075-.26738.96971-.19728,1.32505.15973ZM111.02932,149.54383c-3.21106.70417-5.45207,3.48628-5.45207,6.76577v3.38864c0,.60619-.49237,1.09856-1.09706,1.09856h-8.96039c-.60553,0-1.09856-.49237-1.09856-1.09856v-3.38864c0-3.27949-2.24202-6.06161-5.45057-6.76577-5.86516-1.291-11.41671-3.5956-16.49876-6.85223-1.1271-.72203-2.41226-1.07402-3.69508-1.07402-1.79455,0-3.58175.69098-4.91331,2.0227l-2.40425,2.40408c-.42861.42711-1.1246.42711-1.5532,0l-6.33549-6.33549c-.27956-.2804-.32194-.60636-.32194-.77577,0-.17124.04238-.49721.32194-.7776l2.40408-2.40408c2.28358-2.28358,2.68281-5.90188.95035-8.60755-3.25744-5.08372-5.56306-10.63526-6.85306-16.49976-.70584-3.20922-3.48812-5.4504-6.76661-5.4504h-3.38781c-.60553,0-1.09856-.4922-1.09856-1.09856v-8.95972c0-.60469.49303-1.09689,1.09856-1.09689h3.38781c3.27849,0,6.06077-2.24118,6.76661-5.4504,1.29083-5.86766,3.59644-11.41921,6.85306-16.49959,1.73162-2.70417,1.33241-6.32414-.95035-8.60922l-2.40408-2.40425c-.27956-.28023-.32194-.60636-.32194-.77577,0-.17124.04238-.49721.32194-.77744l6.33549-6.33549c.2804-.2804.6072-.32112.7766-.32112.16957,0,.49637.04072.7766.32112l2.40341,2.40408c2.28358,2.28358,5.9044,2.68448,8.60839.95018,5.08288-3.25646,10.63443-5.56123,16.50042-6.85206,3.20855-.7075,5.44974-3.48979,5.44974-6.76744v-3.38697c0-.60636.49303-1.09856,1.09856-1.09856h8.96039c.60469,0,1.09706.4922,1.09706,1.09856v3.38697c0,3.27765,2.24101,6.05994,5.4504,6.76744,5.86433,1.28916,11.41589,3.5956,16.49959,6.85206,2.70569,1.73263,6.32583,1.33339,8.61089-.95018l2.40091-2.40408c.43028-.42711,1.1246-.42711,1.55487,0l6.33382,6.33383c.42879.43028.42879,1.12627.00167,1.55487l-2.40408,2.40425c-2.28524,2.28341-2.68281,5.90505-.95035,8.60922,3.25662,5.08205,5.56139,10.63343,6.85223,16.50126.70734,3.20755,3.48962,5.44874,6.76744,5.44874h3.38697c.60636,0,1.09858.4922,1.09858,1.09689v8.95972c0,.60636-.49222,1.09856-1.09858,1.09856h-3.38697c-3.27782,0-6.0601,2.24118-6.76744,5.4504-1.28916,5.86449-3.5956,11.41604-6.85223,16.49976-1.73413,2.70567-1.3349,6.32565.95035,8.60755l2.40241,2.40258c.42879.43028.42879,1.12627.00167,1.55487l-6.33549,6.33549c-.43028.42711-1.12627.42711-1.5532,0l-2.40592-2.40575c-2.28172-2.28191-5.90353-2.68114-8.60755-.94701-5.0837,3.25662-10.63526,5.5629-16.49792,6.85223Z" />
    <path class="cls-1"
        d="M99.99967,60.4118c-21.61685,0-39.20364,17.5868-39.20364,39.20432,0,21.61602,17.58679,39.20282,39.20364,39.20282s39.20267-17.5868,39.20267-39.20282c0-21.61752-17.58682-39.20432-39.20267-39.20432ZM99.99967,132.97732c-18.39612,0-33.36201-14.96591-33.36201-33.36119,0-18.39678,14.9659-33.3627,33.36201-33.3627,18.39511,0,33.36104,14.96591,33.36104,33.3627,0,18.39528-14.96593,33.36119-33.36104,33.36119Z" />
    <path class="cls-1"
        d="M87.94389,14.03246c0,.15889.02238.31161.04673.46366.48235,6.20965,5.67839,11.11845,12.00905,11.11845,5.35377,0,9.89755-3.51032,11.46644-8.34818,30.73346,4.24803,56.89493,25.62454,67.10378,55.09922.41726,1.20938,1.54835,1.96562,2.7594,1.96562.31612,0,.63891-.05057.95502-.1614,1.52567-.52808,2.3325-2.19061,1.80439-3.71461-10.96974-31.67814-39.15959-54.60986-72.23204-59.02496-1.00843-5.63583-5.93509-9.93026-11.857-9.93026-6.64777,0-12.05662,5.40801-12.05662,12.05645,0,.10882.01352.21414.01636.32229-.00284.05174-.01552.10114-.01552.15372ZM99.99967,7.34163c3.42603,0,6.21482,2.78879,6.21482,6.21482,0,3.4277-2.78879,6.21649-6.21482,6.21649-3.42703,0-6.21499-2.78879-6.21499-6.21649,0-3.42603,2.78796-6.21482,6.21499-6.21482Z" />
    <path class="cls-1"
        d="M112.05445,185.19995c0-.41125-.08646-.80114-.23951-1.15614-1.11558-5.50214-5.9885-9.65688-11.81527-9.65688-5.07571,0-9.42021,3.15715-11.19539,7.60747-30.84712-4.15039-57.12843-25.55361-67.37481-55.12759-.52808-1.524-2.19395-2.33899-3.71544-1.80273-1.52483.52808-2.33164,2.19228-1.80356,3.71628,10.96523,31.64893,39.09401,54.55695,72.11137,59.00126.66845,6.02021,5.78272,10.71838,11.97784,10.71838,6.64844,0,12.05645-5.40801,12.05645-12.05645,0-.27789-.0232-.54995-.04173-.82317.02003-.13803.04006-.27673.04006-.42043ZM99.99967,192.65837c-3.42703,0-6.21499-2.78879-6.21499-6.21482s2.78796-6.21499,6.21499-6.21499c3.42603,0,6.21482,2.78879,6.21482,6.21499s-2.78879,6.21482-6.21482,6.21482Z" />
    <path class="cls-1"
        d="M14.56722,111.64086c6.35652-.3288,11.43089-5.58777,11.43089-12.02474,0-5.35377-3.51015-9.89805-8.34802-11.46678,4.2487-30.72478,25.62421-56.88526,55.09972-67.10176,1.524-.52808,2.33164-2.19228,1.80273-3.71628-.52808-1.52383-2.18978-2.33882-3.71628-1.80256C39.15963,26.50784,16.22776,54.69518,11.81398,87.75912c-5.63533,1.00877-9.92976,5.93559-9.92976,11.857,0,6.64844,5.40885,12.05662,12.05645,12.05662.14304,0,.28173-.01652.42343-.0217.0177.0005.03405.00534.05174.00534.05191,0,.10031-.01268.15138-.01552ZM7.72584,99.61612c0-3.42603,2.78796-6.21482,6.21482-6.21482.05608,0,.10799.01502.16373.01669.00234,0,.00451.001.00668.00117.00484.0005.00985.0005.01469.00083,3.34042.10048,6.03073,2.83319,6.03073,6.19613,0,3.4262-2.78796,6.21499-6.21582,6.21499-3.42686,0-6.21482-2.78879-6.21482-6.21499Z" />
    <path class="cls-1"
        d="M198.11579,99.61612c0-6.64844-5.40968-12.05645-12.05812-12.05645-.11016,0-.21697.01335-.32646.01652-.0499-.00267-.09714-.01485-.14788-.01485-.15338,0-.30058.02237-.44745.0449-6.21784.47384-11.13482,5.67255-11.13482,12.00988,0,5.35427,3.51015,9.89872,8.34818,11.46711-4.2482,30.72562-25.62304,56.88642-55.09905,67.10309-1.524.52808-2.33081,2.19228-1.80273,3.71628.41893,1.20771,1.55003,1.96395,2.75942,1.96395.31795,0,.64058-.0504.95686-.16123,31.67647-10.97942,54.60854-39.16777,59.02179-72.23238,5.63567-1.00927,9.93026-5.93559,9.93026-11.85683ZM186.05767,105.83111c-3.4262,0-6.21499-2.78879-6.21499-6.21499s2.78879-6.21482,6.21499-6.21482c3.42772,0,6.21649,2.78879,6.21649,6.21482s-2.78877,6.21499-6.21649,6.21499Z" />
</svg>