<?xml version="1.0" encoding="UTF-8"?>
<svg id="Layer_1" xmlns="http://www.w3.org/2000/svg" viewBox="0 0 200 200">
    <defs>
        <style>.cls-1{fill:#0c73b2;}</style>
    </defs>
    <path class="cls-1"
        d="M69.09732,163.80887h-31.42385c-1.60268,0-2.90195,1.29889-2.90195,2.90195s1.29926,2.90201,2.90195,2.90201h31.42385c1.60268,0,2.90201-1.29895,2.90201-2.90201s-1.29933-2.90195-2.90201-2.90195Z" />
    <path class="cls-1"
        d="M69.09732,175.23026H20.40939c-1.60268,0-2.90201,1.29895-2.90201,2.90201s1.29933,2.90201,2.90201,2.90201h48.68793c1.60268,0,2.90201-1.29895,2.90201-2.90201s-1.29933-2.90201-2.90201-2.90201Z" />
    <path class="cls-1"
        d="M164.21319,163.80887h-31.42385c-1.60268,0-2.90201,1.29889-2.90201,2.90195s1.29933,2.90201,2.90201,2.90201h31.42385c1.60268,0,2.90201-1.29895,2.90201-2.90201s-1.29933-2.90195-2.90201-2.90195Z" />
    <path class="cls-1"
        d="M164.21319,175.23026h-48.67675c-1.60268,0-2.90201,1.29895-2.90201,2.90201s1.29933,2.90201,2.90201,2.90201h48.67675c1.60268,0,2.90201-1.29895,2.90201-2.90201s-1.29933-2.90201-2.90201-2.90201Z" />
    <path class="cls-1"
        d="M174.58913,95.96043h-18.41558c-1.60268,0-2.90201,1.29889-2.90201,2.90195s1.29933,2.90201,2.90201,2.90201h18.41558c1.60268,0,2.90201-1.29889,2.90201-2.90201s-1.29933-2.90195-2.90201-2.90195Z" />
    <path class="cls-1"
        d="M174.58913,106.58286h-18.41558c-1.60268,0-2.90201,1.29889-2.90201,2.90195s1.29933,2.90201,2.90201,2.90201h18.41558c1.60268,0,2.90201-1.29889,2.90201-2.90201s-1.29933-2.90195-2.90201-2.90195Z" />
    <path class="cls-1"
        d="M109.18576,95.96043h-18.41564c-1.60268,0-2.90195,1.29889-2.90195,2.90195s1.29926,2.90201,2.90195,2.90201h18.41564c1.60262,0,2.90195-1.29889,2.90195-2.90201s-1.29933-2.90195-2.90195-2.90195Z" />
    <path class="cls-1"
        d="M109.18576,106.58286h-18.41564c-1.60268,0-2.90195,1.29889-2.90195,2.90195s1.29926,2.90201,2.90195,2.90201h18.41564c1.60262,0,2.90195-1.29889,2.90195-2.90201s-1.29933-2.90195-2.90195-2.90195Z" />
    <path class="cls-1"
        d="M19.36736,101.76439h18.41564c1.60268,0,2.90195-1.29889,2.90195-2.90201s-1.29926-2.90195-2.90195-2.90195h-18.41564c-1.60268,0-2.90195,1.29889-2.90195,2.90195s1.29926,2.90201,2.90195,2.90201Z" />
    <path class="cls-1"
        d="M19.36736,112.38681h18.41564c1.60268,0,2.90195-1.29889,2.90195-2.90201s-1.29926-2.90195-2.90195-2.90195h-18.41564c-1.60268,0-2.90195,1.29889-2.90195,2.90195s1.29926,2.90201,2.90195,2.90201Z" />
    <path class="cls-1"
        d="M92.89784,28.06251h31.42391c1.60262,0,2.90195-1.29895,2.90195-2.90201s-1.29933-2.90201-2.90195-2.90201h-31.42391c-1.60262,0-2.90195,1.29895-2.90195,2.90201s1.29933,2.90201,2.90195,2.90201Z" />
    <path class="cls-1"
        d="M75.63413,39.48391h48.68762c1.60262,0,2.90195-1.29889,2.90195-2.90195s-1.29933-2.90201-2.90195-2.90201h-48.68762c-1.60262,0-2.90195,1.29895-2.90195,2.90201s1.29933,2.90195,2.90195,2.90195Z" />
    <path class="cls-1"
        d="M78.99039,149.25909h-32.30448l-20.85678-13.81579c-.89069-.58971-2.03412-.6427-2.97549-.13696-.94143.50573-1.52876,1.48815-1.52876,2.55642v11.39634h-6.28957c-4.23732,0-7.68412,3.44173-7.68412,7.67168v31.39748c0,4.23033,3.44723,7.67175,7.68412,7.67175h63.95545c4.23732,0,7.68412-3.4418,7.68412-7.67175v-31.39748c0-4.23033-3.44717-7.67168-7.68449-7.67168ZM80.87087,188.32788c0,1.03003-.84352,1.86773-1.8801,1.86773H15.03531c-1.01922,0-1.8801-.85551-1.8801-1.86773v-31.39754c0-1.01216.86089-1.86767,1.8801-1.86767h9.19114c1.60268,0,2.90201-1.29895,2.90201-2.90201v-8.89516l17.08108,11.31461c.47512.3146,1.03234.48255,1.60268.48255h33.17855c1.01922,0,1.8801.85551,1.8801,1.86767v31.39754Z" />
    <path class="cls-1"
        d="M171.85776,149.25909h-6.28913v-11.39634c0-1.0687-.5874-2.05112-1.52876-2.55642-.9418-.50573-2.0848-.45275-2.97549.13696l-20.85678,13.81579h-32.30454c-4.23726,0-7.68406,3.44173-7.68406,7.67168v31.39748c0,4.23033,3.44717,7.67175,7.68406,7.67175h63.95551c4.23689,0,7.68406-3.4418,7.68406-7.67175v-31.39748c-.00081-4.23033-3.44754-7.67168-7.68487-7.67168ZM173.73867,188.32825c0,1.03003-.84352,1.86773-1.8801,1.86773h-63.95551c-1.01915,0-1.8801-.85551-1.8801-1.86773v-31.39748c0-1.01222.86095-1.86773,1.8801-1.86773h33.17861c.5699,0,1.1275-.16795,1.60262-.48249l17.08114-11.31467v8.89516c0,1.60306,1.29926,2.90201,2.90195,2.90201h9.1912c1.01915,0,1.8801.85551,1.8801,1.86773v31.39748Z" />
    <path class="cls-1"
        d="M64.29322,57.70954h18.8544c2.04724,0,3.97608.96654,5.16513,2.59209l9.3231,12.66849c.54672.74292,1.41386,1.18167,2.33666,1.18211h.00081c.92206,0,1.78957-.43844,2.33629-1.18055l9.3401-12.67742c1.18367-1.61855,3.11251-2.5851,5.15938-2.5851h18.8544c5.73703,0,10.40418-4.66371,10.40418-10.39568V14.38487c0-5.68092-4.65708-10.33919-10.40418-10.38487h-71.37064c-5.73703,0-10.40424,4.65865-10.40424,10.38487v32.92899c.00044,5.73204,4.66758,10.39568,10.40461,10.39568ZM59.69262,14.38487c0-2.52592,2.06349-4.58092,4.60022-4.58092h71.3474c2.54911.02012,4.62309,2.07511,4.62309,4.58092v32.92899c0,2.53211-2.06355,4.59173-4.60029,4.59173h-18.85433c-3.8918,0-7.5719,1.8553-9.83852,4.95463l-6.9965,9.49612-6.98181-9.48756c-2.27281-3.10789-5.95291-4.96319-9.84464-4.96319h-18.8544c-2.53673,0-4.60022-2.05962-4.60022-4.59173V14.38487Z" />
    <path class="cls-1"
        d="M53.34694,129.2342c1.06483,0,2.04412-.58309,2.55142-1.51952l11.9883-22.12043c.46737-.86214.46737-1.90141.00075-2.76386l-11.9883-22.15298c-.5073-.93718-1.48696-1.52102-2.55217-1.52102H10.65872c-5.35589.00037-9.71312,4.98749-9.71312,11.11804v27.83084c0,6.13636,4.35723,11.12891,9.71312,11.12891h42.68822ZM6.74955,118.10529v-27.83084c0-2.88033,1.78994-5.31371,3.90917-5.31371h40.95864l10.4173,19.24985-10.4158,19.21967H10.65872c-2.11922,0-3.90917-2.43845-3.90917-5.32496Z" />
    <path class="cls-1"
        d="M69.20685,79.11267v.00037c-1.02265,0-1.96989.5386-2.493,1.41692-.5231.87838-.5456,1.96795-.05842,2.8672l11.25082,20.77161-11.25119,20.78205c-.4868.89888-.46437,1.98845.0588,2.86683.5231.87832,1.47034,1.41654,2.493,1.41654h49.54345c1.0652,0,2.04493-.5839,2.55223-1.52064l11.99911-22.16385c.46662-.86207.46662-1.90135-.00037-2.7638l-11.99917-22.15342c-.50723-.93637-1.48659-1.51983-2.55179-1.51983h-49.54345ZM127.44889,104.16841l-10.4278,19.26141h-42.94315l9.68025-17.88048c.46662-.86207.46662-1.90135-.00044-2.7638l-9.67869-17.86929h42.9424l10.42742,19.25216Z" />
    <path class="cls-1"
        d="M198.70425,102.78591l-11.99911-22.15336c-.5073-.93643-1.48659-1.51989-2.55185-1.51989h-49.54307c-1.02265,0-1.96983.5386-2.493,1.41692-.5231.87838-.54554,1.96795-.05842,2.8672l11.25082,20.77161-11.25119,20.78205c-.48674.89925-.46431,1.98845.0588,2.86683.52317.87832,1.47072,1.41654,2.493,1.41654h49.54307c1.06527,0,2.04493-.5839,2.55223-1.52064l11.99911-22.16385c.46662-.86164.46625-1.90097-.00037-2.76342ZM182.42452,123.43025h-42.94321l9.68025-17.88048c.46662-.86207.46662-1.90141-.00037-2.76386l-9.67869-17.86929h42.9424l10.42742,19.25179-10.4278,19.26185Z" />
</svg>