<?xml version="1.0" encoding="UTF-8"?>
<svg id="Layer_1" xmlns="http://www.w3.org/2000/svg" viewBox="0 0 200 200">
    <defs>
        <style>
            .cls-1{fill:none;stroke:#0c73b2;stroke-linecap:round;stroke-linejoin:round;stroke-width:5.84772px;}</style>
    </defs>
    <line class="cls-1" x1="89.53644" y1="119.60333" x2="80.9718" y2="111.03869" />
    <path class="cls-1"
        d="M89.53644,119.60333l-6.19917,9.62502c2.12077,3.34429,3.67056,7.01485,4.56781,10.93011l11.09325,2.44704v12.07206l-11.09325,2.44704c-.89725,3.91526-2.44704,7.58582-4.56781,10.93011l6.19917,9.62502-8.56464,8.56464-9.62502-6.1176c-3.34429,2.0392-7.01485,3.58899-10.93011,4.48624l-2.44704,11.17481h-12.07206l-2.44704-11.17481c-3.91526-.89725-7.66739-2.44704-10.93011-4.48624l-9.62502,6.1176-8.56464-8.56464,6.19917-9.62502c-2.12077-3.34429-3.67056-7.01485-4.56781-10.93011l-11.09325-2.44704v-12.07206l11.09325-2.44704c.89725-3.91526,2.44704-7.58582,4.56781-10.93011l-6.19917-9.62502,8.56464-8.56464,9.62502,6.1176c3.26272-2.0392,7.01485-3.58899,10.93011-4.56781l2.44704-11.09325h12.07206l2.44704,11.09325c3.91526.97882,7.58582,2.52861,10.93011,4.56781l9.62502-6.1176" />
    <path class="cls-1"
        d="M51.93582,168.707c-11.08455,0-20.06547-8.98091-20.06547-20.06547s8.98091-19.98456,20.06547-19.98456,19.98456,8.9,19.98456,19.98456-8.9,20.06547-19.98456,20.06547Z" />
    <line class="cls-1" x1="130.74333" y1="69.83308" x2="93.94121" y2="106.63531" />
    <polyline class="cls-1" points="106.13295 69.83302 130.74333 69.83308 130.74341 94.44356" />
    <path class="cls-1"
        d="M111.071,131.48784l3.74448,17.09977h18.47275l3.74448-17.09977c5.99116-1.37297,11.60788-3.74448,16.72533-6.86487l14.72827,9.36119,13.10567-13.10567-9.48601-14.72827c3.24521-5.11745,5.61671-10.73416,6.98969-16.72533l16.97496-3.74448v-18.47275l-16.97496-3.74448c-1.37297-5.99116-3.74448-11.60788-6.98969-16.72533l9.48601-14.72827-13.10567-13.10567-14.72827,9.36119c-5.11745-3.1204-10.73416-5.4919-16.72533-6.98969l-3.74448-16.97496h-18.47275l-3.74448,16.97496c-5.99116,1.49779-11.73269,3.86929-16.72533,6.98969l-14.72827-9.36119-13.10567,13.10567,9.48601,14.72827c-3.24521,5.11745-5.61671,10.73416-6.98969,16.72533l-16.97496,3.74448v18.47275l16.97496,3.74448" />
    <path class="cls-1"
        d="M95.16469,86.86826c-1.17393-3.25439-1.81375-6.76437-1.81375-10.42421,0-16.96165,13.74265-30.5805,30.70431-30.5805s30.5805,13.61885,30.5805,30.5805-13.61885,30.70431-30.5805,30.70431c-3.20037,0-6.28614-.48925-9.18663-1.39707" />
</svg>