<?xml version="1.0" encoding="UTF-8"?><svg id="Layer_1" xmlns="http://www.w3.org/2000/svg" viewBox="0 0 200 200"><defs><style>.cls-1{fill:#010101;}</style></defs><path class="cls-1" d="M180.58984,195.11621c-5.5752,0-10.5918-3.56738-12.4834-8.87695-.2627-.7373-.96094-1.22852-1.74316-1.22852h-16.08984c-1.14648,0-2.21191-.61816-2.77832-1.6123l-34.81641-60.8916c-.34082-.5957-.96387-.93262-1.60742-.93262-.28223,0-.56738.06445-.83594.2002-2.13184,1.08105-3.97656,1.75879-5.80566,2.13184-.86133.17578-1.47949.93359-1.47949,1.8125v66.19434c0,1.76562-1.43652,3.20312-3.20215,3.20312h-20.21094c-1.76562,0-3.20312-1.4375-3.20312-3.20312v-14.13867c0-.79883-.51172-1.50684-1.27051-1.75684-3.68555-1.21484-7.35156-2.74219-10.89844-4.54199-.26562-.13379-.55176-.2002-.83594-.2002-.48047,0-.9541.1875-1.30957.54297l-10.02832,10.03125c-.55859.55859-1.38379.87891-2.26465.87891-.87988,0-1.70508-.32031-2.26367-.87988l-28.59863-28.59863c-1.20605-1.20605-1.20605-3.32129,0-4.52734l10.03027-10.02832c.56641-.56543.7041-1.43164.34277-2.14453-1.79883-3.5498-3.32715-7.2168-4.54102-10.89941-.25-.75879-.95801-1.27051-1.75684-1.27051h-14.13965c-1.76562,0-3.20215-1.4375-3.20215-3.20312v-40.4209c0-1.76562,1.43652-3.20312,3.20215-3.20312h14.13965c.79883,0,1.50684-.51172,1.75684-1.27051,1.21387-3.68359,2.74219-7.35059,4.54102-10.89844.36133-.71387.22363-1.5791-.34277-2.14551l-10.03125-10.0293c-.60449-.60449-.9375-1.40723-.9375-2.2627s.33301-1.66016.93848-2.26465l28.59863-28.59863c.5752-.57617,1.40137-.90625,2.26562-.90625.87598,0,1.67969.32227,2.2627.90527.04004.04102,10.02832,10.03125,10.02832,10.03125.35547.35547.8291.54297,1.30957.54297.28418,0,.57031-.06641.83594-.2002,3.54102-1.79688,7.20801-3.32422,10.89844-4.54199.75879-.25,1.27051-.95801,1.27051-1.75684v-14.13867c0-1.76562,1.4375-3.20312,3.20312-3.20312h20.21094c1.76562,0,3.20215,1.4375,3.20215,3.20312v66.19531c0,.87988.61816,1.6377,1.48047,1.8125,1.82812.37305,3.67285,1.0498,5.80469,2.13086.26758.13574.55371.2002.83594.2002.64355,0,1.2666-.33691,1.60742-.93262l34.81543-60.88965c.56738-.99609,1.63281-1.61426,2.7793-1.61426h16.08984c.78223,0,1.48047-.49121,1.74316-1.22852,1.8916-5.30957,6.9082-8.87695,12.4834-8.87695,7.33789,0,13.30859,5.9707,13.30859,13.30859s-5.9707,13.30762-13.30859,13.30762c-5.57422,0-10.5918-3.56738-12.48438-8.87598-.26172-.7373-.95996-1.22852-1.74219-1.22852h-13.15625c-.66406,0-1.27637.35547-1.60645.93164l-17.33496,30.31543c-.32715.57227-.3252,1.27539.00586,1.84668.33105.57031.94141.9209,1.60059.9209h30.49121c.78223,0,1.48047-.49121,1.74219-1.22852,1.89355-5.30957,6.91016-8.87695,12.48438-8.87695,7.33789,0,13.30859,5.9707,13.30859,13.30859s-5.9707,13.30859-13.30859,13.30859c-5.57422,0-10.59082-3.56738-12.48438-8.87695-.26172-.7373-.95996-1.22852-1.74219-1.22852h-36.26953c-.66406,0-1.27637.35547-1.60645.93164l-11.02734,19.28613c-.38281.6709-.30957,1.50977.18555,2.10254,2.59863,3.11621,4.29492,6.55273,5.04199,10.21387.17578.8623.93359,1.48047,1.8125,1.48047h41.86328c.78223,0,1.48047-.49121,1.74219-1.22852,1.89355-5.30957,6.91016-8.87695,12.48438-8.87695,7.33789,0,13.30859,5.9707,13.30859,13.30859s-5.9707,13.30859-13.30859,13.30859c-5.57422,0-10.59082-3.56738-12.48438-8.87695-.26172-.7373-.95996-1.22852-1.74219-1.22852h-41.86328c-.87891,0-1.63672.61816-1.8125,1.48047-.74609,3.66113-2.44238,7.09668-5.04199,10.21387-.49512.59277-.56836,1.43164-.18555,2.10254l11.02734,19.28613c.33008.57617.94238.93164,1.60645.93164h36.26953c.78223,0,1.48047-.49121,1.74219-1.22852,1.89258-5.30859,6.91016-8.87598,12.48438-8.87598,7.33789,0,13.30859,5.96973,13.30859,13.30762s-5.9707,13.30859-13.30859,13.30859c-5.5752,0-10.5918-3.56738-12.4834-8.87695-.2627-.7373-.96094-1.22852-1.74316-1.22852h-30.49121c-.65918,0-1.26953.35059-1.60059.9209-.33105.57129-.33301,1.27441-.00586,1.84668l17.33496,30.31641c.33008.57617.94238.93164,1.60645.93164h13.15625c.78223,0,1.48047-.49121,1.74316-1.22852,1.8916-5.30957,6.9082-8.87695,12.4834-8.87695,7.33789,0,13.30859,5.96973,13.30859,13.30762s-5.9707,13.30859-13.30859,13.30859ZM180.58984,174.90625c-3.80664,0-6.90234,3.0957-6.90234,6.90137,0,3.80664,3.0957,6.90234,6.90234,6.90234s6.90234-3.0957,6.90234-6.90234c0-3.80566-3.0957-6.90137-6.90234-6.90137ZM62.40625,163.69727c.55078,0,1.09668.14453,1.57812.41797,5.26855,2.98242,10.78613,5.27832,16.40137,6.82324,1.38574.38184,2.35449,1.65137,2.35449,3.08789v12.83398c0,1.02148.82812,1.84961,1.84961,1.84961h10.10547c1.02148,0,1.84961-.82812,1.84961-1.84961v-25.51855c0-.96191-.7373-1.76367-1.69629-1.84375-30.21484-2.51074-53.88281-28.22168-53.88281-58.53223s23.66797-56.02148,53.88281-58.53223c.95898-.08008,1.69629-.88184,1.69629-1.84375V15.07129c0-1.02148-.82812-1.84961-1.84961-1.84961h-10.10547c-1.02148,0-1.84961.82812-1.84961,1.84961v12.83398c0,1.43652-.96875,2.70605-2.35449,3.08887-5.61328,1.54395-11.13086,3.83984-16.39941,6.82227-.47852.26953-1.02441.41211-1.57617.41211-.85742,0-1.66309-.33203-2.2666-.93457l-9.1084-9.11035c-.34766-.34766-.81738-.54199-1.30859-.54199h0c-.49023,0-.96094.19434-1.30859.54102l-21.45312,21.4541c-.34668.34766-.54102.81836-.54102,1.30859,0,.49121.19434.96094.54199,1.30859l9.11035,9.1084c1.01465,1.01465,1.22949,2.59375.52246,3.84082-2.98438,5.26953-5.2793,10.78809-6.82324,16.40137-.38184,1.38477-1.65234,2.35352-3.08887,2.35352h-12.83398c-1.02148,0-1.84961.82812-1.84961,1.84961v30.31641c0,1.02148.82812,1.84961,1.84961,1.84961h12.83398c1.43652,0,2.70703.96875,3.08984,2.35449,1.54297,5.6123,3.83789,11.13086,6.82129,16.39941.70801,1.24805.49316,2.82715-.52246,3.8418l-9.10938,9.1084c-.34766.34766-.54199.81738-.54199,1.30859,0,.49023.19434.96094.54102,1.30859l21.45312,21.4541c.34766.34668.81836.54102,1.30859.54102.49121,0,.96094-.19434,1.30859-.54199l9.10938-9.11133c.60449-.60645,1.40723-.93945,2.26172-.93945ZM94.51172,48.85449c-26.87402,2.68164-47.13965,25.08398-47.13965,52.11133s20.26562,49.43066,47.13965,52.11133c.06152.00586.12305.00879.18359.00879.45703,0,.89941-.16895,1.24121-.47754.3877-.35156.6084-.84961.6084-1.37207v-25.51758c0-.87891-.61816-1.63672-1.48047-1.8125-10.85254-2.21289-18.73047-11.86035-18.73047-22.94043,0-11.0791,7.87793-20.72656,18.73047-22.93945.8623-.17578,1.48047-.93359,1.48047-1.8125v-25.51855c0-.52246-.2207-1.02051-.6084-1.37207-.3418-.30859-.78418-.47754-1.24121-.47754-.06055,0-.12207.00293-.18359.00879ZM180.58984,134.48438c-3.80664,0-6.90234,3.0957-6.90234,6.90234s3.0957,6.90234,6.90234,6.90234,6.90234-3.0957,6.90234-6.90234-3.0957-6.90234-6.90234-6.90234ZM99.74805,83.95801c-9.37793,0-17.00781,7.62988-17.00781,17.00781s7.62988,17.00781,17.00781,17.00781,17.00684-7.62988,17.00684-17.00781-7.62891-17.00781-17.00684-17.00781ZM180.58984,94.06348c-3.80664,0-6.90234,3.0957-6.90234,6.90234s3.0957,6.90234,6.90234,6.90234,6.90234-3.0957,6.90234-6.90234-3.0957-6.90234-6.90234-6.90234ZM180.58984,53.64258c-3.80664,0-6.90234,3.0957-6.90234,6.90234s3.0957,6.90234,6.90234,6.90234,6.90234-3.0957,6.90234-6.90234-3.0957-6.90234-6.90234-6.90234ZM180.58984,13.22168c-3.80664,0-6.90234,3.0957-6.90234,6.90234s3.0957,6.90234,6.90234,6.90234,6.90234-3.0957,6.90234-6.90234-3.0957-6.90234-6.90234-6.90234Z"/></svg>