<?xml version="1.0" encoding="UTF-8"?><svg id="Layer_1" xmlns="http://www.w3.org/2000/svg" viewBox="0 0 200 200"><defs><style>.cls-1{fill:#231f20;}</style></defs><path class="cls-1" d="M195.68807,65.65561h-29.26608v-29.81148c0-1.2517-1.01509-2.26627-2.26637-2.26627h-29.26598V3.76627c0-1.2517-1.01509-2.26627-2.26627-2.26627H4.31204c-1.25128,0-2.26637,1.01457-2.26637,2.26627v128.31174c0,1.2517,1.01509,2.26627,2.26637,2.26627h29.26608v29.81159c0,1.2517,1.01509,2.26627,2.26627,2.26627h29.26608v29.81159c0,1.2517,1.01509,2.26627,2.26627,2.26627h128.31133c1.25118,0,2.26627-1.01457,2.26627-2.26627V67.92188c0-1.2517-1.01509-2.26627-2.26627-2.26627ZM6.57831,6.03254h63.56611l-32.90137,42.08876c-.77109.98607-.59605,2.41042.3896,3.1811.41415.32408.90599.48102,1.39377.48102.67385,0,1.34073-.29901,1.78733-.87052L75.89735,6.03254h23.68642L34.58041,89.1881c-.77109.98607-.59605,2.41042.3895,3.1811.41415.32408.90599.48092,1.39388.48092.67374,0,1.34062-.29891,1.78722-.87042L105.3365,6.03254h25.02049v123.7792H6.57831V6.03254ZM38.11076,134.34428h94.5126c1.25118,0,2.26627-1.01457,2.26627-2.26627V38.1104h26.99971v123.7792H38.11076v-27.54532ZM193.4218,193.96746h-123.77879v-27.54532h94.5126c1.25128,0,2.26637-1.01457,2.26637-2.26627v-93.96772h26.99981v123.77931Z"/></svg>