<?xml version="1.0" encoding="UTF-8"?>
<svg id="Layer_1" xmlns="http://www.w3.org/2000/svg" viewBox="0 0 200 200">
    <defs>
        <style>
            .cls-1{fill:#ffffff;}.cls-2{fill:none;stroke:#ffffff;stroke-linecap:round;stroke-linejoin:round;stroke-width:5.84772px;}</style>
    </defs>
    <path class="cls-1"
        d="M99.29883,177.33789c-15.86572-.0166-31.09668-4.81738-44.05322-13.88477-12.67822-8.875-22.29346-21.1748-27.80664-35.57227-.29199-.76074-.26904-1.5918.06543-2.33691.3335-.74316.93652-1.31348,1.69824-1.60547.35059-.13477.71777-.20312,1.09082-.20312,1.25635,0,2.40332.79004,2.85449,1.96484,10.42334,27.2373,37.04297,45.53711,66.23975,45.53711,39.08887,0,70.88965-31.77051,70.88965-70.82129,0-1.68359,1.37012-3.05273,3.05371-3.05273,1.68457,0,3.05469,1.36914,3.05469,3.05273,0,42.41699-34.54102,76.92578-76.99805,76.92578-.02979,0-.05957-.00098-.08887-.00391ZM172.2832,91.03613c-1.49512,0-2.75879-1.07031-3.00684-2.5459-5.78809-34.12891-35.18066-58.90137-69.88867-58.90137-34.3208,0-62.92188,23.45312-69.55273,57.0332-.2793,1.42578-1.53857,2.46289-2.99414,2.46289-.19434,0-.3916-.01855-.58984-.05762-1.65088-.32324-2.73145-1.92969-2.40869-3.58203,7.08838-35.90332,38.85791-61.95996,75.5415-61.95996,18.2998,0,36.03418,6.52441,49.93555,18.37109,13.75098,11.71582,22.97559,27.91602,25.97559,45.61621.13574.80273-.04883,1.61133-.52148,2.27539-.47266.66504-1.17676,1.10547-1.98242,1.24121-.12891.02246-.26367.03613-.40039.04102-.03516.00391-.07129.00586-.10742.00586Z" />
    <path class="cls-1"
        d="M99.38379,177.3418c-12.54639,0-24.21436-8.22559-32.85449-23.16113-8.33301-14.4082-12.92236-33.50195-12.92236-53.76465.00049-1.3584.02686-2.80273.08105-4.43457.00977-.28711.05225-1.22168.05225-1.22168.04785-1.12012.10889-2.23633.18506-3.34766.03076-.45605.05518-.81348.08301-1.16992.10352-1.33691.2251-2.66602.36914-3.9873l.03467-.34766c.1665-1.4873.3667-3.01465.59424-4.54004.00098-.00391.021-.14453.02637-.16797,1.95898-12.98242,5.93408-24.92676,11.49658-34.54785,7.17334-12.40625,16.38379-20.1709,26.63574-22.45508l.41846-.08691c.5166-.10742,1.0332-.20898,1.55225-.28711.22803-.03516.45801-.06152.68799-.08789l.55518-.06641c.27832-.03418.55713-.06836.83691-.08887.76709-.06055,1.47754-.08984,2.16797-.08984,12.5459.00098,24.21387,8.22656,32.85449,23.16211,8.33301,14.4082,12.92188,33.50195,12.92188,53.76465,0,1.37402-.02637,2.81836-.08105,4.43457-.00879.28516-.05176,1.2207-.05176,1.2207-.04688,1.12012-.10938,2.2373-.18457,3.34863l-.08301,1.16797c-.10352,1.33691-.22559,2.66309-.36914,3.98145l-.03516.35352c-.16797,1.49512-.36719,3.02051-.59375,4.54004-.00098.00195-.02051.14648-.03125.18848-1.96875,13.00586-5.93945,24.92578-11.49219,34.52832-7.17383,12.40723-16.38477,20.17285-26.63574,22.45605l-.41699.08691c-.51855.10742-1.03516.20898-1.55566.28711-.22852.03516-.46484.0625-.70117.08984l-.53418.06348c-.2793.03418-.55957.06738-.83984.08984-.76172.05957-1.47168.08887-2.1709.08887ZM61.05908,82.18262c-.4126,2.73828-.73828,5.62891-.96729,8.5918l-.07227,1.02051c-.07471,1.08105-.1333,2.16699-.1792,3.25684l-.04785,1.1377c-.05176,1.54199-.07666,2.91016-.07666,4.18262-.00098,4.38379.23193,8.79395.69189,13.15234,1.16748,11.05957,3.87451,21.61133,7.82861,30.51465,1.1333,2.55273,2.33838,4.93652,3.58203,7.08691,7.49072,12.95605,17.26855,20.09766,27.53418,20.1123.01465-.00098.02881-.00098.04248-.00098.52686,0,1.09424-.02441,1.73584-.07422.23633-.01953.47559-.0498.71484-.08008l.33594-.04199c.20605-.02441.41309-.04883.61816-.08105.42676-.06738.85645-.15137,1.28516-.24414l.29688-.06445c7.11328-1.66113,13.87109-6.77344,19.53613-14.7832.01367-.01953.03027-.04102.04688-.06152,1.0459-1.4873,2.04883-3.06152,2.9834-4.67969,5.19629-8.98438,8.91504-20.20215,10.75586-32.44434.00098-.01172.00293-.02246.00391-.0332.41211-2.73242.73828-5.62305.96777-8.58984l.07324-1.02734c.07324-1.07812.13184-2.16113.17773-3.24707l.04883-1.14551c.0498-1.50879.0752-2.87207.07617-4.16699.00098-4.82422-.2666-9.58398-.79492-14.20215-1.10449-9.66211-3.32227-18.67871-6.59277-26.79883-1.41895-3.52441-3.00586-6.81055-4.71484-9.76562-4.23047-7.31738-9.13965-12.75879-14.59277-16.1748-.07812-.04883-.47363-.27344-.47363-.27344-1.66797-1.00293-3.3418-1.7998-4.97461-2.36914-.74414-.25879-1.54297-.4834-2.51562-.70605-1.70801-.39062-3.39307-.58887-5.00879-.58887-.53564,0-1.10693.02441-1.74658.0752-.24512.01953-.49219.05176-.73926.08301l-.36523.04492c-.18799.02246-.37598.04492-.56348.07422-.42822.06836-.85547.15137-1.28271.24414l-.30371.06641c-7.1123,1.66113-13.86914,6.77344-19.5332,14.78223-.01318.01855-.02832.03906-.04443.05859-1.04639,1.48828-2.04883,3.06055-2.98682,4.68359-5.19775,8.98633-8.91699,20.20898-10.75635,32.45508-.00098.00684-.00293.02148-.00293.02148Z" />
    <path class="cls-1"
        d="M101.02734,55.85547c-1.68408,0-3.0542-1.36914-3.0542-3.05176V10.9209l-7.10938,7.10156c-.57617.57617-1.34277.89258-2.15869.89258-.81543,0-1.58203-.31641-2.15869-.8916-.57666-.57715-.89453-1.34375-.89453-2.15918s.31787-1.58203.89404-2.1582l12.32422-12.3125c.57617-.57617,1.34229-.89355,2.15723-.89355.4043,0,.79883.0791,1.17285.23535,1.14258.46875,1.88477,1.57617,1.88477,2.81836v49.25c0,1.68262-1.37012,3.05176-3.05371,3.05176h-.00391Z" />
    <path class="cls-1"
        d="M113.3418,18.91797c-.80957-.00195-1.57227-.31836-2.14941-.88867l-12.32617-12.31641c-.57666-.5752-.89404-1.34082-.89453-2.15625,0-.81641.31738-1.58301.89404-2.15918.57715-.57617,1.34326-.89258,2.15869-.89258.81641,0,1.58301.31641,2.15918.8916l12.32422,12.31348c.57617.5752.89355,1.3418.89355,2.1582,0,.81543-.31738,1.58203-.89355,2.1582-.57422.57324-1.34082.89062-2.15723.8916h-.00879Z" />
    <path class="cls-1"
        d="M101.01855,199.49902c-.40283-.00098-.79346-.08008-1.16162-.2334-1.14258-.4707-1.88379-1.57812-1.88379-2.81934v-49.24902c0-1.68262,1.37012-3.05176,3.0542-3.05176,1.68359,0,3.05371,1.36914,3.05371,3.05176v41.88281l7.1084-7.10156c.57715-.57617,1.34375-.89355,2.15918-.89355.81641,0,1.58301.31738,2.15918.89355.57617.5752.89355,1.3418.89355,2.1582,0,.81543-.31738,1.58203-.89355,2.1582l-12.32324,12.31152c-.57422.57422-1.34082.8916-2.15723.89258h-.00879Z" />
    <path class="cls-1"
        d="M101.0166,199.5c-.80811-.00293-1.57031-.31738-2.14648-.8877l-12.32764-12.31641c-.57666-.57617-.89453-1.34277-.89453-2.1582s.31787-1.58203.89404-2.1582c.57666-.57617,1.34326-.89258,2.15918-.89258.81543,0,1.58203.31641,2.15869.8916l12.32471,12.31348c1.19043,1.19043,1.19043,3.12598,0,4.31641-.5752.57324-1.33887.88867-2.15137.8916h-.0166Z" />
    <path class="cls-1"
        d="M14.75977,115.36719c-.81201,0-1.57861-.31543-2.15771-.88867L.2749,102.16211c-.02148-.02148-.04297-.04492-.06348-.06934-.13232-.13379-.28174-.33496-.41846-.57422-.03467-.05859-.06885-.12402-.10156-.19336-.11035-.22754-.18848-.44922-.23682-.67188-.0625-.29785-.07666-.54883-.05957-.83203.00342-.06738.01025-.13867.02051-.21289.03516-.28125.10059-.53711.19873-.77246,0,0,.00732-.0166.01074-.02539.09521-.22266.2251-.43945.39746-.66309.04053-.05273.08398-.10645.13037-.15918.02588-.03711.06787-.08789.11621-.13672l12.33008-12.31836c.57617-.57617,1.34326-.89258,2.15869-.89258.81592,0,1.58252.31641,2.15869.8916.57666.57715.89453,1.34375.89453,2.15918s-.31787,1.58203-.89404,2.1582l-7.10742,7.10059h50.56982c1.68359,0,3.05371,1.36914,3.05371,3.05273,0,1.68262-1.37012,3.05176-3.05371,3.05176H9.81006l7.10645,7.10059c.57666.5752.89404,1.3418.89404,2.15723,0,.81641-.31738,1.58301-.89404,2.15918-.55078.5498-1.27588.86328-2.05127.88965-.03467.00391-.06982.00586-.10547.00586Z" />
    <path class="cls-2"
        d="M132.39776,104.155v-8.31l-7.63621-1.68446c-.61763-2.69513-1.68446-5.22182-3.14432-7.52392l4.2673-6.62554-5.89561-5.89561-6.62554,4.21115c-2.30209-1.40372-4.82878-2.47054-7.52392-3.14432l-1.68446-7.63621h-8.31l-1.68446,7.63621c-2.69513.67378-5.27797,1.74061-7.52392,3.14432l-6.62554-4.21115-5.89561,5.89561,4.2673,6.62554c-1.45986,2.30209-2.52669,4.82878-3.14432,7.52392l-7.63621,1.68446v8.31l7.63621,1.68446c.61763,2.69513,1.68446,5.22182,3.14432,7.52392l-4.2673,6.62554,5.89561,5.89561,6.62554-4.21115c2.24595,1.40372,4.82878,2.47054,7.52392,3.08817l1.68446,7.69236h8.31l1.68446-7.69236c2.69513-.61763,5.22182-1.68446,7.52392-3.08817l6.62554,4.21115,5.89561-5.89561-4.2673-6.62554c1.45986-2.30209,2.52669-4.82878,3.14432-7.52392l7.63621-1.68446Z" />
    <path class="cls-2"
        d="M100,113.92486c-7.69236,0-13.92486-6.2325-13.92486-13.92486s6.2325-13.86871,13.92486-13.86871,13.86871,6.17635,13.86871,13.86871-6.17635,13.92486-13.86871,13.92486Z" />
    <path class="cls-1"
        d="M185.62988,115.36719c-.81641,0-1.58301-.31738-2.15918-.89355-.57617-.5752-.89355-1.3418-.89355-2.1582,0-.81543.31738-1.58203.89355-2.1582l7.10742-7.10059h-51.56934c-1.68457,0-3.05469-1.36914-3.05469-3.05176s1.37012-3.05176,3.05469-3.05176h51.56934l-7.10742-7.10059c-.57617-.57617-.89355-1.34277-.89355-2.1582s.31738-1.58203.89355-2.1582c.55078-.5498,1.27539-.86328,2.05176-.88965.03516-.00391.07031-.00586.10547-.00586.81152,0,1.57812.31543,2.15723.8877,0,0,12.36328,12.35254,12.37988,12.37207.15527.16504.2959.35547.42676.58301.03809.06543.06738.12305.09668.18164.11523.23633.19531.46484.24414.6875.06348.30078.07715.54395.06055.83105-.00391.07422-.01172.14062-.01953.20801-.03418.27344-.0957.51855-.18652.74609-.00586.01465-.01074.02832-.0166.04297-.09766.23145-.23145.4541-.40723.68164-.03516.0459-.07617.09668-.11914.14648-.03711.0498-.08105.10254-.13086.15234l-12.32422,12.3125c-.57617.57617-1.34277.89355-2.15918.89355Z" />
</svg>