<?xml version="1.0" encoding="UTF-8"?>
<svg id="Layer_1" xmlns="http://www.w3.org/2000/svg" viewBox="0 0 200 200">
    <defs>
        <style>
            .cls-1{fill:none;stroke:#ffffff;stroke-linecap:round;stroke-linejoin:round;stroke-width:5.84772px;}</style>
    </defs>
    <g id="person_manufacturing_gear_human">
        <path class="cls-1"
            d="M193.46574,65.17412v-9.79845l-9.00398-1.98617c-.72826-3.17788-1.98617-6.15714-3.70752-8.87157l5.03164-7.81228-6.9516-6.9516-7.81228,4.96543c-2.71444-1.65514-5.69369-2.91305-8.87157-3.70752l-1.98617-9.00398h-9.79845l-1.98617,9.00398c-3.17788.79447-6.22334,2.05238-8.87157,3.70752l-7.81228-4.96543-6.9516,6.9516,5.03164,7.81228c-1.72135,2.71444-2.97926,5.69369-3.70752,8.87157l-9.00398,1.98617v9.79845l9.00398,1.98617c.72826,3.17788,1.98617,6.15714,3.70752,8.87157l-5.03164,7.81228,6.9516,6.9516,7.81228-4.96543c2.64823,1.65514,5.69369,2.91305,8.87157,3.64132l1.98617,9.07019h9.79845l1.98617-9.07019c3.17788-.72826,6.15714-1.98617,8.87157-3.64132l7.81228,4.96543,6.9516-6.9516-5.03164-7.81228c1.72135-2.71444,2.97926-5.69369,3.70752-8.87157l9.00398-1.98617Z" />
        <path class="cls-1"
            d="M155.26502,76.69392c-9.07019,0-16.41903-7.34884-16.41903-16.41903s7.34884-16.35282,16.41903-16.35282,16.35282,7.28263,16.35282,16.35282-7.28263,16.41903-16.35282,16.41903Z" />
        <path class="cls-1"
            d="M69.19753,195.99669V65.6124l23.48572-8.20488c9.72364-3.39768,16.23773-12.57181,16.23773-22.87475V10.62058c0-3.65919-2.96149-6.62058-6.62058-6.62058-3.6593,0-6.62058,2.96138-6.62058,6.62058v23.5666c0,4.83898-3.16144,9.10925-7.7912,10.52539l-18.45552,5.63146h-34.29844c-5.70241,0-11.13062,2.45027-14.90292,6.73048l-9.14246,10.37378c-9.61705,10.99148-8.49817,27.75279,2.48934,37.36984l11.53437,10.09241c1.25791,1.09968,2.81242,1.63925,4.35766,1.63925h.00342l-13.34785,79.45022" />
        <path class="cls-1"
            d="M29.47408,101.13311l-7.1767-6.28094c-5.5017-4.81382-6.06125-13.18024-1.24467-18.68194l7.26068-8.29823c.40386-.45947,1.1607-.17478,1.1607.4363v15.13861" />
        <path class="cls-1"
            d="M22.30058,94.85482l11.53437,10.09307c2.75085,2.4079,3.02891,6.58813.62035,9.34229-1.30889,1.4936-3.14213,2.2596-4.98463,2.2596-1.54524,0-3.09975-.53958-4.35766-1.63925l-11.53437-10.09241" />
        <polyline class="cls-1" points="55.95638 195.99669 49.33581 119.86007 29.47408 195.99669" />
        <circle class="cls-1" cx="52.64609" cy="20.55144" r="16.55144" />
        <path class="cls-1"
            d="M175.12012,155.6039v-11.90909l-10.92671-2.39201c-.90503-3.87304-2.44365-7.49979-4.47352-10.78426l6.03874-9.42704-8.41817-8.4174-9.42704,6.03863c-3.28381-2.03715-6.91784-3.56915-10.78426-4.47418l-2.39201-10.9266h-11.90909l-2.39201,10.9266c-3.87966.90503-7.50045,2.43703-10.78426,4.47418l-9.42704-6.03863-8.41795,8.4174,6.03852,9.42704c-2.04245,3.28447-3.56849,6.91122-4.48676,10.78426l-10.91325,2.39201v11.90909l10.92649,2.39268c.90503,3.87237,2.43108,7.49979,4.47352,10.78426l-6.03852,9.42638,8.41795,8.41806,9.42704-6.03863c3.28381,2.04311,6.9046,3.56849,10.78426,4.47352l2.39201,10.93322h11.90909l2.39201-10.93322c3.86642-.90503,7.50045-2.43041,10.78426-4.47352l9.42704,6.04459,8.41817-8.42402-6.03874-9.42638c2.02987-3.28447,3.56849-6.91188,4.47352-10.78426l10.92671-2.39268ZM132.64251,169.14231c-1.24809.24629-2.54109.37539-3.86642.37539-10.97835,0-19.86173-8.89011-19.86173-19.86173s8.88338-19.86173,19.86173-19.86173c10.96555,0,19.86173,8.89011,19.86173,19.86173" />
        <path class="cls-1"
            d="M122.47717,14.53334c9.23239-6.62984,20.55424-10.53334,32.78785-10.53334,9.51498,0,18.47858,2.36156,26.33665,6.53054" />
        <path class="cls-1"
            d="M109.98083,93.69092c-5.03881-6.81787-8.57563-14.81288-10.11955-23.49775" />
        <path class="cls-1"
            d="M182.26493,116.53853c5.96779,9.61771,9.41325,20.96339,9.41325,33.11413,0,18.2516-7.77399,34.68718-20.19154,46.17653" />
    </g>
</svg>