<?xml version="1.0" encoding="UTF-8"?><svg id="Layer_1" xmlns="http://www.w3.org/2000/svg" viewBox="0 0 200 200"><defs><style>.cls-1{fill:none;stroke:#231f20;stroke-linecap:round;stroke-linejoin:round;stroke-width:5.63993px;}</style></defs><polyline class="cls-1" points="116.60968 35.41075 179.07369 35.41076 179.07366 195 20.92631 194.99996 20.92634 35.41072 83.39034 35.41074"/><line class="cls-1" x1="179.07368" y1="75.30211" x2="20.92633" y2="75.30207"/><line class="cls-1" x1="179.07366" y1="174.89672" x2="20.92632" y2="174.89668"/><polygon class="cls-1" points="86.96484 56.26194 78.17709 5 121.82295 5.00001 113.03519 56.26195 86.96484 56.26194"/><path class="cls-1" d="M100,99.56213c-8.738,0-15.84658,6.96163-16.08619,15.64208h-21.11483s0-39.90072,0-39.90072l74.40205.00002v39.90072s-21.11808,0-21.11808,0c-.23961-8.68045-7.34819-15.64209-16.08295-15.64209Z"/><path class="cls-1" d="M100,150.63805c8.738,0,15.84659-6.96162,16.08621-15.64207h21.11483s-.00005,39.90073-.00005,39.90073l-74.40205-.00005.00005-39.90072h21.11807c.2396,8.68047,7.34818,15.6421,16.08293,15.64211Z"/><rect class="cls-1" x="92.53559" y="56.26194" width="14.92882" height="19.04156"/></svg>