<?xml version="1.0" encoding="UTF-8"?>
<svg id="Layer_1" xmlns="http://www.w3.org/2000/svg" viewBox="0 0 200 200">
    <defs>
        <style>.cls-1{fill:#ffffff;}</style>
    </defs>
    <path class="cls-1"
        d="M179.40671,110.84626c-.52965-.89948-1.49497-1.4522-2.53928-1.4522h-39.18625c.64754-1.35065,1.0211-2.85673,1.0211-4.45191v-2.98826h13.68646c4.89112,0,8.87115-3.98003,8.87115-8.87284v-28.76287c0-4.89112-3.98003-8.87115-8.87115-8.87115h-13.68646v-2.98995c0-5.70353-4.64123-10.34457-10.34477-10.34457h-1.74506v-8.04881h1.74506c5.70353,0,10.34477-4.6412,10.34477-10.34642v-11.87255c0-5.70353-4.64123-10.34474-10.34477-10.34474h-56.71501c-5.70353,0-10.34471,4.6412-10.34471,10.34474v2.98995h-13.68652c-4.89112,0-8.87115,3.98003-8.87115,8.87115v28.76287c0,4.89264,3.98003,8.87267,8.87115,8.87267h13.68652v2.98826c0,5.70522,4.64118,10.34642,10.34471,10.34642h1.74506v8.04881h-1.74506c-5.70353,0-10.34471,4.64104-10.34471,10.34474v11.87255c0,1.59518.37351,3.10127,1.02104,4.45191H23.13257c-1.04431,0-2.00963.55272-2.53928,1.4522-.52948.89964-.5443,2.013-.03772,2.92578l11.36429,20.45926v54.62791c0,5.31535,4.32544,9.64078,9.64078,9.64078h116.87872c5.31535,0,9.64078-4.32544,9.64078-9.64078v-54.62791l11.36429-20.45926c.50658-.91278.49176-2.02614-.03772-2.92578ZM152.38874,61.34137c1.64132,0,2.97681,1.33549,2.97681,2.97681v28.76287c0,1.64301-1.33549,2.97849-2.97681,2.97849h-13.68646v-2.98995c0-5.7037-4.64123-10.34474-10.34477-10.34474h-1.74506v-8.04881h1.74506c5.70353,0,10.34477-4.6412,10.34477-10.34642v-2.98826h13.68646ZM120.7181,42.11252h-41.43621v-8.04881h41.43621v8.04881ZM67.19212,11.84474c0-2.45373,1.99664-4.4504,4.45037-4.4504h56.71501c2.45373,0,4.45042,1.99667,4.45042,4.4504v11.87255c0,2.45541-1.99669,4.45208-4.45042,4.45208h-56.71501c-2.45373,0-4.45037-1.99667-4.45037-4.45208v-11.87255ZM47.61126,55.44703c-1.64132,0-2.97681-1.33532-2.97681-2.97833v-28.76287c0-1.64132,1.33549-2.97681,2.97681-2.97681h13.68652v2.98826c0,5.70522,4.64118,10.34642,10.34471,10.34642h1.74506v8.04881h-1.74506c-5.70353,0-10.34471,4.64104-10.34471,10.34457v2.98995h-13.68652ZM67.19212,64.32964v-11.87255c0-2.45373,1.99664-4.45023,4.45037-4.45023h56.71501c2.45373,0,4.45042,1.9965,4.45042,4.45023v11.87255c0,2.45541-1.99669,4.45208-4.45042,4.45208h-56.71501c-2.45373,0-4.45037-1.99667-4.45037-4.45208ZM79.2819,74.67606h41.43621v8.04881h-41.43621v-8.04881ZM67.19212,104.94215v-11.87255c0-2.4539,1.99664-4.4504,4.45037-4.4504h56.71501c2.45373,0,4.45042,1.9965,4.45042,4.4504v11.87255c0,2.45541-1.99669,4.45191-4.45042,4.45191h-56.71501c-2.45373,0-4.45037-1.9965-4.45037-4.45191ZM106.72494,115.28841l-6.72426,12.10731-6.72525-12.10731h13.44951ZM71.64249,115.28841h14.89045l8.46006,15.23098h-58.39083l-8.46161-15.23098h43.50192ZM37.8142,188.85922v-52.44549h59.23948v56.19193h-55.49303c-2.06555,0-3.74644-1.6809-3.74644-3.74644ZM162.1858,188.85922c0,2.06555-1.6809,3.74644-3.74644,3.74644h-55.49135v-56.19193h59.23779v52.44549ZM163.39788,130.51938h-58.3892l8.46006-15.23098h58.39069l-8.46155,15.23098Z" />
    <path class="cls-1"
        d="M77.47115,93.62704c-1.62819,0-2.94717,1.31899-2.94717,2.94717v4.86485c0,1.62819,1.31899,2.94717,2.94717,2.94717s2.94717-1.31899,2.94717-2.94717v-4.86485c0-1.62819-1.31899-2.94717-2.94717-2.94717Z" />
    <path class="cls-1"
        d="M92.12314,101.43906v-4.86485c0-1.62819-1.31899-2.94717-2.94717-2.94717s-2.94717,1.31899-2.94717,2.94717v4.86485c0,1.62819,1.31901,2.94717,2.94717,2.94717s2.94717-1.31899,2.94717-2.94717Z" />
    <path class="cls-1"
        d="M100.8823,104.38623c1.62819,0,2.94717-1.31899,2.94717-2.94717v-4.86485c0-1.62819-1.31899-2.94717-2.94717-2.94717s-2.94717,1.31899-2.94717,2.94717v4.86485c0,1.62819,1.31899,2.94717,2.94717,2.94717Z" />
    <path class="cls-1"
        d="M80.41833,60.82671v-4.86485c0-1.62819-1.31899-2.94717-2.94717-2.94717s-2.94717,1.31899-2.94717,2.94717v4.86485c0,1.62819,1.31899,2.94717,2.94717,2.94717s2.94717-1.31899,2.94717-2.94717Z" />
    <path class="cls-1"
        d="M89.17597,63.77388c1.62819,0,2.94717-1.31899,2.94717-2.94717v-4.86485c0-1.62819-1.31899-2.94717-2.94717-2.94717s-2.94717,1.31899-2.94717,2.94717v4.86485c0,1.62819,1.31901,2.94717,2.94717,2.94717Z" />
    <path class="cls-1"
        d="M100.8823,63.77388c1.62819,0,2.94717-1.31899,2.94717-2.94717v-4.86485c0-1.62819-1.31899-2.94717-2.94717-2.94717s-2.94717,1.31899-2.94717,2.94717v4.86485c0,1.62819,1.31899,2.94717,2.94717,2.94717Z" />
    <path class="cls-1"
        d="M77.47115,23.16137c1.62819,0,2.94717-1.31899,2.94717-2.94717v-4.86468c0-1.62819-1.31899-2.94717-2.94717-2.94717s-2.94717,1.31899-2.94717,2.94717v4.86468c0,1.62819,1.31899,2.94717,2.94717,2.94717Z" />
    <path class="cls-1"
        d="M89.17597,23.16137c1.62819,0,2.94717-1.31899,2.94717-2.94717v-4.86468c0-1.62819-1.31899-2.94717-2.94717-2.94717s-2.94717,1.31899-2.94717,2.94717v4.86468c0,1.62819,1.31901,2.94717,2.94717,2.94717Z" />
    <path class="cls-1"
        d="M100.8823,23.16137c1.62819,0,2.94717-1.31899,2.94717-2.94717v-4.86468c0-1.62819-1.31899-2.94717-2.94717-2.94717s-2.94717,1.31899-2.94717,2.94717v4.86468c0,1.62819,1.31899,2.94717,2.94717,2.94717Z" />
</svg>