<?xml version="1.0" encoding="UTF-8"?><svg id="Layer_1" xmlns="http://www.w3.org/2000/svg" viewBox="0 0 200 200"><defs><style>.cls-1{fill:none;stroke:#231f20;stroke-linecap:round;stroke-linejoin:round;stroke-width:5.84772px;}</style></defs><circle class="cls-1" cx="100" cy="100" r="80.70024"/><line class="cls-1" x1="100" y1="4.82337" x2="100" y2="40.52372"/><line class="cls-1" x1="100" y1="159.47628" x2="100" y2="195.17663"/><line class="cls-1" x1="195.17663" y1="100" x2="159.47628" y2="100"/><line class="cls-1" x1="40.52372" y1="100" x2="4.82337" y2="100"/><rect class="cls-1" x="120.09865" y="115.1203" width="9.29554" height="9.29554" rx=".3919" ry=".3919" transform="translate(-48.15143 123.28843) rotate(-45.00004)"/><rect class="cls-1" x="68.56668" y="110.91359" width="9.29557" height="9.29557" rx=".50172" ry=".50172" transform="translate(-60.27007 85.61695) rotate(-44.99972)"/><rect class="cls-1" x="115.89198" y="63.58833" width="9.29554" height="9.29554" rx=".50684" ry=".50684" transform="translate(-12.94494 105.22036) rotate(-45)"/><line class="cls-1" x1="97.14002" y1="147.63737" x2="121.5914" y2="123.186"/><line class="cls-1" x1="128.69018" y1="116.08721" x2="153.6674" y2="91.10999"/><path class="cls-1" d="M120.19626,123.55693c-13.31303,8.86406-31.45831,7.4244-43.20167-4.31895"/><path class="cls-1" d="M124.41126,71.82126c11.74335,11.74335,13.18306,29.88864,4.31902,43.20162"/><path class="cls-1" d="M119.22839,109.36466l-8.77275-27.38287c-.21105-.65886-.66479-1.21277-1.26912-1.54946l-16.58234-9.23786-16.16842,16.16841,9.23787,16.58234c.33669.60439.8906,1.05807,1.54941,1.26917l28.48936,9.12722,1.93523-1.93523-19.71886-19.71886"/><path class="cls-1" d="M81.62784,55.3531l12.81299,12.81299c.32908.32908.32908.86263,0,1.19171l-19.84173,19.84173c-.32908.32908-.86263.32908-1.19176,0l-12.81294-12.81294"/></svg>