<?xml version="1.0" encoding="UTF-8"?><svg id="Layer_1" xmlns="http://www.w3.org/2000/svg" viewBox="0 0 200 200"><defs><style>.cls-1{fill:#010101;}</style></defs><path class="cls-1" d="M17.65039,197.9324c-4.37061,0-8.51514-1.81934-11.37012-4.99219-5.42529-6.03027-4.9707-15.45703,1.03467-21.46289l53.72705-53.72461c.146-.14551.18701-.36621.104-.55566-7.16895-16.26465-3.65674-34.91992,8.94727-47.52441,8.06641-8.06836,18.82666-12.51172,30.29932-12.51172,6.43652,0,12.64258,1.40332,18.44629,4.1709,1.00586.48047,1.71973,1.42285,1.90723,2.52051.18945,1.10059-.16895,2.22754-.95703,3.01562l-20.67773,20.67773c-1.72949,1.73145-1.72949,4.54883-.00049,6.28027l7.43604,7.43555c.80273.80273,1.94824,1.26367,3.14062,1.26367,1.19336,0,2.33789-.46094,3.13965-1.26367l20.67773-20.67676c.65039-.65039,1.51172-1.00781,2.42676-1.00781.19531,0,.3916.0166.58691.0498,1.10059.18848,2.04297.90137,2.52246,1.9082,7.80762,16.3584,4.45605,35.94629-8.33984,48.74316-8.12305,8.12305-18.87012,12.59766-30.25928,12.59766-.00049,0,.00049,0,0,0-5.96289,0-11.77246-1.22754-17.26611-3.64941-.06494-.02832-.1333-.04199-.20166-.04199-.12988,0-.25781.05078-.35352.14648l-54.19824,54.19824c-2.83789,2.83984-6.66357,4.40332-10.77197,4.40332ZM100.38672,64.03591c-9.62646,0-18.65723,3.72949-25.42871,10.50098-11.17188,11.17285-13.76855,28.08496-6.46191,42.08203.70068,1.33789.45264,2.95508-.61621,4.02441l-55.7002,55.69824c-3.36133,3.36133-3.71338,8.74219-.78564,11.99512,1.54541,1.71484,3.81787,2.69922,6.23438,2.69922,2.26123,0,4.42285-.86426,5.93066-2.37207l56.1709-56.1709c.65039-.64941,1.51514-1.00684,2.43506-1.00684.55127,0,1.10059.13477,1.58887.39062,5.15479,2.69043,10.92188,4.1123,16.67822,4.1123,9.56201,0,18.58447-3.75586,25.40381-10.57617,9.25977-9.25879,12.7373-22.8457,9.0752-35.45801-.0498-.16992-.18457-.30078-.35645-.34473-.04102-.01074-.08301-.01562-.12402-.01562-.13086,0-.25879.05176-.35352.14648l-16.38574,16.38477c-2.03418,2.03613-4.95215,3.2041-8.00391,3.2041-3.05273,0-5.9707-1.16797-8.00488-3.2041l-7.43555-7.43555c-2.13867-2.13672-3.31641-4.97949-3.31641-8.00391,0-3.02539,1.17773-5.86816,3.31641-8.00488l16.38574-16.38574c.125-.125.1748-.30664.13086-.47754-.04395-.17188-.1748-.30664-.34473-.35645-3.25977-.94629-6.63477-1.42578-10.03223-1.42578Z"/><path class="cls-1" d="M76.73291,197.99978c-1.89697,0-3.43994-1.54297-3.43994-3.43945,0-7.66016-3.00342-14.7207-8.45752-19.88086-.67139-.63477-1.06348-1.52832-1.07666-2.45215-.01172-.92383.35547-1.82715,1.00781-2.47949l15.71924-15.71973c.64893-.65039,1.5127-1.00781,2.43213-1.00781.3501,0,.69727.05273,1.03271.1582,5.2373,1.64648,10.76318,2.48145,16.42236,2.48145,30.69141,0,55.66016-24.96875,55.66016-55.66016s-24.96875-55.66016-55.66016-55.66016-55.66016,24.96875-55.66016,55.66016c0,5.65625.83496,11.18164,2.48193,16.42285.38623,1.22852.06055,2.55566-.84961,3.46484l-27.02832,27.02734c-.64941.65234-1.50293,1.01172-2.4043,1.01172-.15674,0-.31494-.01074-.47412-.0332-1.05762-.13965-2.00342-.77148-2.53369-1.69238l-10.20557-17.69141c-.45312-.78516-.57812-1.73633-.34277-2.61035.23779-.88672.80811-1.62793,1.60547-2.08691,8.59326-4.95312,13.72314-13.85449,13.72314-23.8125s-5.12988-18.85938-13.72314-23.81152c-.78564-.45215-1.37061-1.21289-1.60547-2.08789-.23828-.88574-.1167-1.81348.34277-2.60938L27.33887,30.51345c.61133-1.06348,1.75488-1.72363,2.98486-1.72363.59766,0,1.18848.1582,1.70752.45801,4.34326,2.49512,8.96338,3.76074,13.73389,3.76074,13.23877,0,27.52783-10.54004,27.52783-27.56836,0-1.89746,1.54297-3.44043,3.43994-3.44043h47.27979c1.89746,0,3.44043,1.54297,3.44043,3.44043,0,17.02832,14.28906,27.56836,27.52734,27.56836,4.77148,0,9.3916-1.26562,13.7334-3.76074.52051-.29785,1.11133-.45605,1.70801-.45605,1.22949,0,2.37305.66016,2.98438,1.72168l23.6416,40.97754c.45801.79492.58008,1.72266.3418,2.61035-.23828.88672-.80859,1.62793-1.60547,2.08691-8.59375,4.95215-13.72363,13.85352-13.72363,23.81152,0,9.95703,5.12988,18.85938,13.72266,23.8125.79785.45898,1.36816,1.2002,1.60742,2.08691.2373.8877.11523,1.81543-.34375,2.61035l-23.63965,40.97754c-.61328,1.0625-1.75488,1.72266-2.98047,1.72266h-.00098c-.59766,0-1.19043-.15918-1.71387-.45996-4.33789-2.49316-8.95801-3.75781-13.73145-3.75781-13.23828,0-27.52734,10.54004-27.52734,27.56836,0,1.89648-1.54297,3.43945-3.44043,3.43945h-47.27979ZM84.05322,160.39724c-.13086,0-.2583.05176-.35352.14648l-11.36963,11.36914c-.18311.18262-.19629.47559-.02979.67383,4.28027,5.11719,6.92969,11.37207,7.66211,18.08789.02783.25293.2417.44531.49707.44531h39.83447c.25488,0,.46875-.19141.49707-.44434,1.96094-17.42383,16.65918-30.56348,34.18945-30.56348,4.71777,0,9.32617.98047,13.69629,2.91406.06543.0293.13379.04297.20215.04297.17383,0,.34082-.09082.43262-.25l19.91309-34.51953c.12793-.2207.06836-.50195-.13672-.65332-8.83789-6.48145-13.90723-16.55859-13.90723-27.64648s5.06934-21.16406,13.90723-27.64551c.20508-.15137.26465-.43262.13672-.65332l-19.91309-34.52148c-.0918-.15918-.25879-.25-.43262-.25-.06836,0-.13672.01367-.20215.04297-4.375,1.93457-8.9834,2.91602-13.69629,2.91602-17.53027,0-32.22852-13.13965-34.18945-30.56445-.02832-.25293-.24219-.44434-.49707-.44434h-39.84229c-.25439,0-.46826.19141-.49707.44434-1.96045,17.4248-16.65869,30.56445-34.18945,30.56445-4.71289,0-9.3208-.98145-13.69531-2.91602-.06543-.0293-.13428-.04297-.20215-.04297-.17383,0-.34131.09082-.43311.25l-19.91357,34.52148c-.12744.2207-.06836.50195.13721.65332,8.83838,6.48145,13.90723,16.55762,13.90723,27.64551s-5.06885,21.16504-13.90723,27.64648c-.20557.15137-.26465.43262-.13721.65332l5.77686,10.01562c.07764.13477.21338.22559.36768.24609.02197.00293.04395.00391.06543.00391.13184,0,.25928-.05176.35352-.14648l21.74512-21.74512c.12646-.12695.17578-.31152.12891-.48438-1.41016-5.21191-2.12549-10.65918-2.12549-16.18945,0-34.48438,28.05518-62.54004,62.54004-62.54004s62.54004,28.05566,62.54004,62.54004-28.05566,62.54004-62.54004,62.54004c-5.53125,0-10.97803-.71484-16.18945-2.125-.04297-.01172-.08691-.01758-.13037-.01758Z"/></svg>