<?xml version="1.0" encoding="UTF-8"?><svg id="Layer_1" xmlns="http://www.w3.org/2000/svg" viewBox="0 0 200 200"><defs><style>.cls-1{fill:#010101;}</style></defs><path class="cls-1" d="M32.60547,196.74978c-7.61084,0-13.80273-6.19238-13.80273-13.80273V27.42068c0-7.61133,6.19189-13.80273,13.80273-13.80273h38.03906v-6.93359c0-1.89355,1.54053-3.43457,3.43457-3.43457h51.8418c1.89404,0,3.43457,1.54102,3.43457,3.43457v6.93359h38.03906c7.61084,0,13.80273,6.19141,13.80273,13.80273v155.52637c0,7.61035-6.19189,13.80273-13.80273,13.80273H32.60547ZM32.60547,20.48708c-3.82373,0-6.93457,3.11035-6.93457,6.93359v155.52637c0,3.82422,3.11084,6.93457,6.93457,6.93457h134.78906c3.82373,0,6.93457-3.11035,6.93457-6.93457V27.42068c0-3.82324-3.11084-6.93359-6.93457-6.93359h-38.03906v6.93359c0,1.89355-1.54053,3.43457-3.43457,3.43457h-51.8418c-1.89404,0-3.43457-1.54102-3.43457-3.43457v-6.93359h-38.03906ZM77.51318,23.98708h44.97363v-13.86914h-44.97363v13.86914Z"/><path class="cls-1" d="M42.97363,176.01345c-1.89355,0-3.43408-1.54102-3.43408-3.43457V48.15798c0-1.89355,1.54053-3.43457,3.43408-3.43457h114.05273c1.89355,0,3.43408,1.54102,3.43408,3.43457v98.5c0,.91699-.35742,1.7793-1.00586,2.42773l-25.92139,25.9209c-.64893.64941-1.51074,1.00684-2.42773,1.00684H42.97363ZM46.40771,169.14431h81.26318v-22.48633c0-1.89355,1.54053-3.43457,3.43457-3.43457h22.48682V51.59255H46.40771v117.55176ZM134.53955,164.28884l14.19678-14.19629h-14.19678v14.19629Z"/><path class="cls-1" d="M63.71045,155.27615c-1.89355,0-3.43408-1.54004-3.43408-3.43359s1.54053-3.43457,3.43408-3.43457h46.6582c1.89355,0,3.43408,1.54102,3.43408,3.43457s-1.54053,3.43359-3.43408,3.43359h-46.6582Z"/><path class="cls-1" d="M94.83594,111.23122c-.9165,0-1.77881-.35742-2.42773-1.00684l-5.18457-5.18359c-1.33838-1.33887-1.33838-3.51758.00049-4.85645.64893-.64844,1.51123-1.00684,2.42773-1.00684s1.77881.3584,2.42822,1.00684l2.74854,2.75,13.08496-13.15137c.6499-.65234,1.5166-1.01172,2.43848-1.01172.91211,0,1.77051.35449,2.41699.99707.65088.64746,1.01074,1.50977,1.01367,2.42676.00244.91602-.35254,1.7793-.99951,2.42969l-15.51221,15.59277c-.64111.64453-1.52686,1.01367-2.42969,1.01367h-.00537Z"/><path class="cls-1" d="M100,134.53982c-19.04541,0-34.53955-15.49414-34.53955-34.54004,0-19.04492,15.49414-34.53906,34.53955-34.53906s34.53955,15.49414,34.53955,34.53906c0,19.0459-15.49414,34.54004-34.53955,34.54004ZM100,72.32888c-15.25781,0-27.6709,12.41309-27.6709,27.6709s12.41309,27.6709,27.6709,27.6709,27.6709-12.41309,27.6709-27.6709-12.41309-27.6709-27.6709-27.6709Z"/></svg>