<?xml version="1.0" encoding="UTF-8"?><svg id="Layer_1" xmlns="http://www.w3.org/2000/svg" viewBox="0 0 151.2 151.2"><polygon points="75.6 16.95293 147.48299 46.28442 147.48299 63.90623 127.62892 63.90623 127.62892 54.38574 75.6 33.15557 23.57093 54.38574 23.57093 68.58374 32.58897 68.58374 32.58897 58.05144 75.6 40.51237 118.61997 58.05144 118.61997 63.90623 93.25792 63.90623 75.6 56.70858 57.95102 63.90623 52.43395 66.15909 52.43395 85.0601 57.91495 87.29377 75.6 94.50417 93.28505 87.29377 118.61997 87.29377 118.61997 93.14224 75.6 110.70049 32.58897 93.14224 32.58897 82.61626 3.71701 82.61626 3.71701 46.28442 75.6 16.95293" style="fill:none; stroke:#ed1c24; stroke-dasharray:4.6808; stroke-linecap:round; stroke-linejoin:round; stroke-width:.5851px;"/><polygon points="62.49596 68.58374 75.6 68.58374 147.48299 68.58374 147.48299 104.92833 75.6 134.24707 3.71701 104.92833 3.71701 87.29377 23.57093 87.29377 23.57093 96.82701 75.6 118.05718 127.62892 96.82701 127.62892 82.61626 75.6 82.61626 62.49596 82.61626 62.49596 68.58374" style="fill:none; stroke:#ed1c24; stroke-dasharray:4.6808; stroke-linecap:round; stroke-linejoin:round; stroke-width:.5851px;"/></svg>