<?xml version="1.0" encoding="UTF-8"?><svg id="Layer_1" xmlns="http://www.w3.org/2000/svg" viewBox="0 0 151.2 151.2"><polygon points="75.595 19.72497 75.595 27.07501 32.58499 44.61498 32.58499 55.15496 23.56497 55.15496 23.56497 40.95501 75.595 19.72497" style="fill:none; stroke:#c2c4c7; stroke-linecap:round; stroke-linejoin:round;"/><polygon points="127.62496 40.95501 127.62496 55.15496 118.61501 55.15496 118.61501 44.61498 75.595 27.07501 75.595 19.72497 127.62496 40.95501" style="fill:none; stroke:#c2c4c7; stroke-linecap:round; stroke-linejoin:round;"/><polygon points="93.25497 50.47497 93.25497 55.15496 75.595 55.15496 75.595 43.27502 93.25497 50.47497" style="fill:none; stroke:#c2c4c7; stroke-linecap:round; stroke-linejoin:round;"/><rect x="93.25497" y="50.47497" width="25.36005" height="4.67999" style="fill:none; stroke:#c2c4c7; stroke-linecap:round; stroke-linejoin:round;"/><rect x="127.62496" y="50.47497" width="19.86005" height="4.67999" style="fill:none; stroke:#c2c4c7; stroke-linecap:round; stroke-linejoin:round;"/><polygon points="75.595 43.27502 75.595 55.15496 62.49502 55.15496 62.49502 75.48498 62.20498 75.61498 62.19497 75.61498 57.94497 73.87499 57.915 73.86498 52.43502 71.62499 52.43502 52.72497 57.94497 50.47497 75.595 43.27502" style="fill:none; stroke:#c2c4c7; stroke-linecap:round; stroke-linejoin:round;"/><polygon points="127.62496 69.18499 127.62496 83.39501 118.61501 87.07501 118.61501 73.86498 93.285 73.86498 93.25497 73.87499 89.00497 75.61498 88.99502 75.61498 75.595 81.07501 62.49502 75.73498 62.49502 69.18499 127.62496 69.18499" style="fill:none; stroke:#c2c4c7; stroke-linecap:round; stroke-linejoin:round;"/><polygon points="32.58499 69.18499 32.58499 87.07501 23.56497 83.39501 23.56497 73.86498 3.71499 73.86498 3.71499 69.18499 32.58499 69.18499" style="fill:none; stroke:#c2c4c7; stroke-linecap:round; stroke-linejoin:round;"/><polygon points="118.61501 79.70501 118.61501 87.07501 96.595 96.05499 75.595 104.62499 75.595 97.26501 78.55502 96.05499 118.61501 79.70501" style="fill:none; stroke:#c2c4c7; stroke-linecap:round; stroke-linejoin:round;"/><polygon points="147.48501 32.85497 147.48501 50.47497 127.62496 50.47497 127.62496 40.95501 75.595 19.72497 23.56497 40.95501 23.56497 55.15496 32.58499 55.15496 32.58499 44.61498 75.595 27.07501 118.61501 44.61498 118.61501 50.47497 93.25497 50.47497 75.595 43.27502 57.94497 50.47497 52.43502 52.72497 52.43502 71.62499 57.915 73.86498 57.94497 73.87499 62.19497 75.61498 62.20498 75.61498 62.49502 75.73498 75.595 81.07501 88.99502 75.61498 89.00497 75.61498 93.25497 73.87499 93.285 73.86498 118.61501 73.86498 118.61501 79.70501 78.55502 96.05499 75.595 97.26501 72.63497 96.05499 62.49502 91.91497 32.58499 79.70501 32.58499 69.18499 3.71499 69.18499 3.71499 32.85497 75.595 3.51501 147.48501 32.85497" style="fill:none; stroke:#c2c4c7; stroke-linecap:round; stroke-linejoin:round;"/><polygon points="75.595 97.26501 75.595 104.62499 32.58499 87.07501 32.58499 79.70501 62.49502 91.91497 72.63497 96.05499 75.595 97.26501" style="fill:none; stroke:#c2c4c7; stroke-linecap:round; stroke-linejoin:round;"/><polygon points="75.595 120.815 75.595 147.68499 3.71499 118.36498 3.71499 91.49499 14.89498 96.05499 32.58499 103.27502 75.595 120.815" style="fill:none; stroke:#c2c4c7; stroke-linecap:round; stroke-linejoin:round;"/><polygon points="147.48501 91.49499 147.48501 118.36498 75.595 147.68499 75.595 120.815 118.61501 103.26501 147.48501 91.49499" style="fill:none; stroke:#c2c4c7; stroke-linecap:round; stroke-linejoin:round;"/><polygon points="147.48501 55.15496 147.48501 91.49499 118.61501 103.26501 75.595 120.815 32.58499 103.27502 14.89498 96.05499 3.71499 91.49499 3.71499 73.86498 23.56497 73.86498 23.56497 83.39501 32.58499 87.07501 75.595 104.62499 96.595 96.05499 118.61501 87.07501 127.62496 83.39501 127.62496 69.18499 62.49502 69.18499 62.49502 55.15496 147.48501 55.15496" style="fill:none; stroke:#c2c4c7; stroke-linecap:round; stroke-linejoin:round;"/></svg>