<?xml version="1.0" encoding="UTF-8"?>
<svg id="Layer_1" xmlns="http://www.w3.org/2000/svg" viewBox="0 0 200 200">
    <defs>
        <style>
            .cls-1{stroke-linecap:round;stroke-linejoin:round;}.cls-1,.cls-2{fill:none;stroke:#0c73b2;stroke-width:5.84772px;}.cls-2{stroke-miterlimit:10;}</style>
    </defs>
    <g id="earth_globe">
        <path class="cls-1"
            d="M196,100c0-30.11619-13.99825-56.95448-35.76707-74.56684-1.38372-1.11823-3.27194-1.44199-4.97214-.90505l-16.70731,5.28199c-1.37048.42703-2.50196,1.39697-3.14218,2.67674l-4.92646,9.86019c-.45286.89843-1.15068,1.65517-2.01732,2.17225l-13.21556,7.93357c-1.27978.7627-2.17887,2.03652-2.46952,3.49771h0c-1.47431,7.37677,4.16375,14.25633,11.68287,14.25633h30.59487c3.74996,0,6.3168,3.78902,4.9205,7.26753l-2.87723,7.17021c-3.41375,6.19366-12.26495,6.84646-16.481.73688-.89831-1.29964-2.50196-1.93324-4.07967-1.93324h-33.54306c-1.86174,0-3.58841.97655-4.5451,2.57346l-3.93732,6.56243c-2.21131,3.6917-.23305,8.46985,3.93732,9.51062,0,0,4.85573,3.2779,4.85573,6.22014v12.93749c0,1.24138.43287,2.4437,1.22802,3.39443l13.7333,16.48022c1.00833,1.20894,2.50196,1.90742,4.07317,1.90742h17.10124c2.16617,0,4.11861,1.31884,4.92038,3.32954l5.28873,13.22218h0l19.13102,3.37523c1.86902.32971,3.80822-.33633,5.01782-1.7909,13.81672-16.62985,22.19598-37.91404,22.19598-61.17054Z" />
        <path class="cls-1"
            d="M4.19387,96.18516c.86003.29793,1.76508.51112,2.74163.51112h1.86174c4.66825.00662,8.43752,3.78836,8.4309,8.45661v2.96806c-.00608,4.65501-3.78186,8.43079-8.44348,8.43079h-3.25274c4.15779,23.78681,17.06284,44.56055,35.31476,58.90097l8.60557-17.37269c.58858-1.18312,1.43548-2.21131,2.496-3.0005,2.45694-1.84916,7.15101-5.36607,9.76287-7.32513,1.23476-.93087,2.16563-2.14047,2.74163-3.57517,1.36386-3.41429,3.97572-9.93766,5.15288-12.88585.39459-.99575.60128-2.01732.60128-3.09054v-7.32579c0-7.0795-8.1919-11.01683-13.72017-6.58825l-.51708.41379c-1.50013,1.19636-3.36199,1.84916-5.27603,1.84916h-3.68508c-3.87906,0-7.25429-2.63768-8.19178-6.39426l-.80177-3.19382c-.58196-2.32121-.14234-4.79139,1.19636-6.77628l4.33192-6.40088c1.57121-2.32717,4.18957-3.71752,6.99542-3.71752h.80177c6.69153,0,10.71956-7.42908,7.07354-13.04739l-.07801-.1291c-.91179-1.40292-1.37048-2.98063-1.37048-4.60999v-10.09258c0-3.19448,1.79078-6.11023,4.64827-7.5456,2.52856-1.26058,5.67062-2.83829,8.32166-4.16375,3.60087-1.80414,5.599-5.94803,4.35762-9.78207-1.7717-5.50908-5.5733-10.02174-10.70686-10.21572h-29.60586" />
        <path class="cls-1"
            d="M57.48247,14.06014l30.98284,7.74621c4.17699,1.04739,8.22434-2.11465,8.22434-6.4267V4.16817c-14.04988.48463-27.31034,3.98301-39.20718,9.89197Z" />
        <path class="cls-1"
            d="M156.61207,177.35349l-22.49379-7.49992c-6.2069-2.06897-12.97589.91829-15.63331,6.89876l-8.30842,18.69153c17.26941-1.82996,33.12277-8.32088,46.43553-18.09037Z" />
        <path class="cls-2"
            d="M100,196c-52.93319,0-96-43.06692-96-96S47.06681,4,100,4s96,43.06692,96,96-43.06705,96-96,96Z" />
    </g>
</svg>