<?xml version="1.0" encoding="UTF-8"?>
<svg id="Layer_1" xmlns="http://www.w3.org/2000/svg" viewBox="0 0 200 200">
    <defs>
        <style>
            .cls-1{fill:none;stroke:#0c73b2;stroke-linecap:round;stroke-linejoin:round;stroke-width:5.84772px;}</style>
    </defs>
    <g id="person_growth_arrow_human">
        <polyline class="cls-1"
            points="123.17296 196.00227 123.17296 50.34365 136.41465 50.34365 106.62085 7.97024 76.82704 50.34365 90.06873 50.34365 90.06873 196.00227" />
        <polyline class="cls-1"
            points="182.76058 196.00227 182.76058 116.55212 196.00227 116.55212 166.20846 74.1787 136.41465 116.55212 149.65635 116.55212 149.65635 196.00227" />
        <path class="cls-1"
            d="M56.9645,196.00227v-105.93354h0c4.89469,0,9.16845-2.65761,11.46323-6.6076,1.1315-1.95315,1.77846-4.21615,1.77846-6.63409v-6.62085c0-10.9244-8.93814-19.86254-19.86254-19.86254h-26.48338c-10.97018,0-19.86254,8.89246-19.86254,19.86254v6.62085c0,7.31272,5.92887,13.24169,13.24169,13.24169h0v33.10423L3.99773,196.00227" />
        <circle class="cls-1" cx="37.10196" cy="20.54985" r="16.55212" />
        <path class="cls-1"
            d="M56.9645,80.13746v-2.11404c0-4.09301-3.67268-7.20944-7.70743-6.5308l-24.31042,4.04799c-4.03474.67202-7.70723-2.4378-7.70723-6.5308" />
        <polyline class="cls-1" points="43.72281 196.00227 37.10196 119.86254 17.23942 196.00227" />
        <line class="cls-1" x1="30.48111" y1="90.06873" x2="56.9645" y2="90.06873" />
    </g>
</svg>