<?xml version="1.0" encoding="UTF-8"?>
<svg id="Layer_1" xmlns="http://www.w3.org/2000/svg" viewBox="0 0 200 200">
    <defs>
        <style>
            .cls-1{fill:none;stroke:#0c73b2;stroke-linecap:round;stroke-linejoin:round;stroke-width:5.6993px;}</style>
    </defs>
    <path class="cls-1"
        d="M140.84466,141.05897l11.05201-18.35765q.02899-.02343.03192-.04978l.94033-1.54535c3.76454-6.20775,5.38251-13.44867,4.65658-20.65385l-2.12434-21.13119c-1.73423-10.13394,9.93978-6.7542,11.27165-2.16794l7.89601,35.66925s3.42689,13.85602-3.0989,25.84982c-4.86388,8.95904-12.92857,22.3796-16.69867,28.64006-1.35705,2.19108-1.83172,4.82435-1.36671,7.37474l.85658,4.79975" />
    <path class="cls-1"
        d="M120.96538,180.03884c-1.65224-2.14861-13.34324-18.71814,4.71951-35.05779l12.76985-21.17395c5.12129-8.39883,15.12082-4.53765,13.47385-1.15557-.00586.05271-.04071.12856-.07259.17834" />
    <path class="cls-1"
        d="M110.06126,194.94107l1.19364-9.47491c-.15843-2.87019,2.10062-5.297,4.97458-5.34415l40.76975-.66886c2.66607-.04363,4.90957,1.98696,5.13096,4.64425l-.61586,11.90261" />
    <path class="cls-1"
        d="M59.15534,141.05897l-11.05201-18.35765q-.02899-.02343-.03192-.04978l-.94033-1.54535c-3.76454-6.20775-5.38251-13.44867-4.65658-20.65385l2.12434-21.13119c1.73423-10.13394-9.93978-6.7542-11.27165-2.16794l-7.89601,35.66925s-3.42689,13.85602,3.0989,25.84982c4.86388,8.95904,12.92857,22.3796,16.69867,28.64006,1.35705,2.19108,1.83172,4.82435,1.36671,7.37474l-.85658,4.79975" />
    <path class="cls-1"
        d="M79.03462,180.03884c1.65224-2.14861,13.34324-18.71814-4.71951-35.05779l-12.76985-21.17395c-5.12129-8.39883-15.12082-4.53765-13.47385-1.15557.00586.05271.04071.12856.07259.17834" />
    <path class="cls-1"
        d="M89.93874,194.94107l-1.19364-9.47491c.15843-2.87019-2.10062-5.297-4.97458-5.34415l-40.76975-.66886c-2.66607-.04363-4.90957,1.98696-5.13096,4.64425l.61586,11.90261" />
    <path class="cls-1"
        d="M71.31846,61.33604l-7.39649-7.3965,12.38299-12.38299,7.34755,7.3965c2.34934-1.37045,4.89446-2.44723,7.58642-3.13245v-10.45053s17.52218,0,17.52218,0v10.45053c2.69195.68523,5.23707,1.76201,7.58641,3.13246l7.34755-7.39649,12.38299,12.38299-7.3965,7.39649c1.37045,2.34934,2.39828,4.89446,3.08351,7.53747h10.49948s0,17.52218,0,17.52218h-10.49948c-.68523,2.69195-1.76201,5.23707-3.08351,7.58641l7.39649,7.34755-12.38299,12.38299-7.34755-7.3965c-2.34934,1.37045-4.89446,2.44723-7.58642,3.13245v10.45053s-17.52218,0-17.52218,0v-10.45053c-2.69195-.68523-5.23707-1.76201-7.58641-3.13246l-7.34755,7.39649-12.38299-12.38299,7.3965-7.34755c-1.37045-2.34934-2.44723-4.89446-3.13245-7.58642h-10.45053s0-17.52218,0-17.52218h10.45053c.68523-2.64301,1.76201-5.18813,3.13246-7.53747Z" />
    <polygon class="cls-1"
        points="100 58.29624 106.01426 69.55984 118.58509 71.79909 109.73128 80.99964 111.48622 93.64718 100 88.06983 88.51378 93.64718 90.26872 80.99964 81.41491 71.79909 93.98574 69.55984 100 58.29624" />
    <line class="cls-1" x1="100" y1="4" x2="100" y2="22.57004" />
    <line class="cls-1" x1="48.71479" y1="23.84378" x2="61.59123" y2="37.22449" />
    <line class="cls-1" x1="151.28521" y1="23.84378" x2="138.40877" y2="37.22449" />
</svg>