<?xml version="1.0" encoding="UTF-8"?>
<svg id="Layer_1" xmlns="http://www.w3.org/2000/svg" viewBox="0 0 200 200">
    <defs>
        <style>
            .cls-1{fill:none;stroke:#0c73b2;stroke-linecap:round;stroke-linejoin:round;stroke-width:5.6993px;}</style>
    </defs>
    <g id="affiliate_people_team_teamwork_affiliate_program_affiliation_program">
        <path class="cls-1"
            d="M37.12054,174.50147c16.84436,14.61319,38.82902,23.4571,62.87946,23.4571,23.81053,0,45.59669-8.66847,62.37472-23.02212M162.90769,29.44083c-16.84755-14.62841-38.84359-23.48226-62.90769-23.48226-23.87102,0-45.70671,8.71217-62.50141,23.1307M25.5403,85.98417c2.49666-11.69479,7.67868-22.39448,14.87007-31.42312M40.42041,149.36867c-7.17827-9.00943-12.35631-19.68397-14.86158-31.35029M174.45218,117.96607c-2.50063,11.68684-7.68331,22.37992-14.8726,31.40259M159.57959,54.54847c7.18862,9.02201,12.37064,19.71377,14.87193,31.39928" />
        <path class="cls-1"
            d="M4,101.95857c0,18.60612,5.29312,35.9755,14.4555,50.68469,3.56855,5.72954,9.99194,9.0624,16.7424,9.04982l10.65004-.01986c4.01479-.00728,8.03023,1.00105,11.34852,3.26135,7.93291,5.40248,16.9397,9.3451,26.63371,11.44121" />
        <path class="cls-1"
            d="M196,101.95857c0,18.60612-5.29336,35.9755-14.45574,50.68469-3.56855,5.72954-9.99194,9.0624-16.7424,9.04982l-10.65004-.01986c-4.01479-.00728-8.03023,1.00105-11.34852,3.26135-7.93213,5.40182-16.93837,9.34444-26.63172,11.44121" />
        <path class="cls-1"
            d="M4,101.95857c0-18.60612,5.29312-35.9755,14.4555-50.68469,3.56855-5.72954,9.99194-9.0624,16.7424-9.04982l10.65004.01986c4.01479.00728,8.03023-1.00105,11.34852-3.26135,8.02825-5.46737,17.15619-9.43978,26.98394-11.51603" />
        <path class="cls-1"
            d="M196,101.95857c0-18.60612-5.29336-35.9755-14.45574-50.68535-3.56855-5.72954-9.99261-9.06174-16.7424-9.04916l-10.65004.01986c-4.01479.00728-8.03023-1.00105-11.34852-3.26135-7.95199-5.41506-16.98261-9.36364-26.70323-11.45644" />
        <path class="cls-1"
            d="M135.87752,96.2853c.2892,1.8485.43949,3.74334.43949,5.67327,0,20.1077-16.3061,36.41379-36.41379,36.41379-20.10174,0-36.41379-16.3061-36.41379-36.41379s16.31205-36.41379,36.41379-36.41379c7.3332,0,14.16099,2.16894,19.87663,5.90036" />
        <polyline class="cls-1" points="139.72414 72.16547 100 111.8896 83.44828 95.33788" />
        <circle class="cls-1" cx="20.55172" cy="101.95857" r="16.55172" />
        <circle class="cls-1" cx="179.44828" cy="101.95857" r="16.55172" />
        <circle class="cls-1" cx="100" cy="181.40684" r="16.55172" />
        <circle class="cls-1" cx="100" cy="22.51029" r="16.55172" />
    </g>
</svg>