<?xml version="1.0" encoding="UTF-8"?>
<svg id="Layer_1" xmlns="http://www.w3.org/2000/svg" viewBox="0 0 200 200">
    <defs>
        <style>.cls-1{fill:#0c73b2;}</style>
    </defs>
    <path class="cls-1"
        d="M171.23598,38.22373h-9.3255v-15.38823c0-4.93353-4.0059-8.94664-8.92954-8.94664h-63.96077c-.96633,0-1.85072-.42963-2.42998-1.1855l-5.98247-7.75645c-1.6969-2.1582-4.33483-3.44692-7.05687-3.44692h-26.53177c-4.92364,0-8.92955,4.00574-8.92955,8.92955v27.79418h-9.3255c-8.20467,0-14.87934,6.67467-14.87934,14.87934v92.63784c0,8.20367,6.67467,14.87834,14.87934,14.87834h55.23314l-3.17078,14.46613h-6.5882c-3.58449,0-6.50124,2.91608-6.50124,6.5004v10.41381c0,3.58432,2.91675,6.5004,6.50124,6.5004h51.52365c3.58449,0,6.50124-2.91608,6.50124-6.5004v-10.41381c0-3.58432-2.91675-6.5004-6.50124-6.5004h-6.5882l-3.17078-14.46613h55.23313c8.20467,0,14.87934-6.67467,14.87934-14.87834V53.10307c0-8.20467-6.67467-14.87934-14.87934-14.87934ZM43.95419,41.15607v-4.02048h112.09163v60.14723c0,1.69037-1.37468,3.06571-3.06488,3.06571H47.01907c-1.6902,0-3.06488-1.37535-3.06488-3.06571v-56.12675ZM47.01907,7.36467h26.53177c.93768,0,1.8524.45175,2.42998,1.1855l5.96052,7.72846c1.69355,2.2083,4.27317,3.4749,7.07883,3.4749h63.96077c1.6902,0,3.06488,1.38272,3.06488,3.08197v8.43541H43.95419V10.42955c0-1.69037,1.37468-3.06488,3.06488-3.06488ZM28.76402,44.0884h9.3255v53.19441c0,4.92465,4.00591,8.93039,8.92955,8.93039h105.96187c4.92364,0,8.92954-4.00574,8.92954-8.93039v-53.19441h9.3255c4.97039,0,9.01467,4.04428,9.01467,9.01467v79.43898H19.74935V53.10307c0-4.97039,4.04428-9.01467,9.01467-9.01467ZM126.3984,181.58579v10.41381c0,.3502-.28553.63573-.63657.63573h-51.52365c-.35104,0-.63657-.28553-.63657-.63573v-10.41381c0-.35004.28553-.63573.63657-.63573h51.52365c.35104,0,.63657.28569.63657.63573ZM113.16937,175.08538h-26.33874l3.17094-14.46613h19.99685l3.17094,14.46613ZM171.23598,154.75458h-58.84594c-.01156,0-.02162-.0057-.03318-.0057h-24.71372c-.01156,0-.02162.0057-.03318.0057H28.76402c-4.97039,0-9.01467-4.04327-9.01467-9.01366v-7.33419h160.5013v7.33419c0,4.97039-4.04428,9.01366-9.01467,9.01366Z" />
    <path class="cls-1"
        d="M79.18478,71.67481h.97689c1.48091,0,2.68535,1.20444,2.68535,2.68451v12.76102c0,4.71436,3.83482,8.54901,8.54901,8.54901,1.61915,0,2.93234-1.31318,2.93234-2.93234s-1.31318-2.93234-2.93234-2.93234c-1.48008,0-2.68434-1.20427-2.68434-2.68434v-12.76102c0-2.14781-.79609-4.11382-2.10927-5.61685,1.31318-1.50387,2.10927-3.46904,2.10927-5.61752v-12.76035c0-1.48091,1.20427-2.68518,2.68434-2.68518,1.61915,0,2.93234-1.31318,2.93234-2.93234s-1.31318-2.93234-2.93234-2.93234c-4.71419,0-8.54901,3.83566-8.54901,8.54985v12.76035c0,1.48091-1.20444,2.68518-2.68535,2.68518h-.97689c-1.61915,0-2.93234,1.31318-2.93234,2.93234s1.31318,2.93234,2.93234,2.93234Z" />
    <path class="cls-1"
        d="M111.28832,87.12034c0,1.48008-1.20427,2.68434-2.68434,2.68434-1.61915,0-2.93234,1.31318-2.93234,2.93234s1.31318,2.93234,2.93234,2.93234c4.71419,0,8.54901-3.83466,8.54901-8.54901v-12.76102c0-1.48008,1.20444-2.68451,2.68535-2.68451h.97689c1.61915,0,2.93234-1.31318,2.93234-2.93234s-1.31318-2.93234-2.93234-2.93234h-.97689c-1.48091,0-2.68535-1.20427-2.68535-2.68518v-12.76035c0-4.71419-3.83482-8.54985-8.54901-8.54985-1.61915,0-2.93234,1.31318-2.93234,2.93234s1.31318,2.93234,2.93234,2.93234c1.48008,0,2.68434,1.20427,2.68434,2.68518v12.76035c0,2.14848.79609,4.11365,2.10927,5.61752-1.31318,1.50303-2.10927,3.46904-2.10927,5.61685v12.76102Z" />
    <path class="cls-1"
        d="M137.06489,28.44498h4.0369c1.61915,0,2.93234-1.31318,2.93234-2.93234s-1.31318-2.93234-2.93234-2.93234h-4.0369c-1.61915,0-2.93234,1.31318-2.93234,2.93234s1.31318,2.93234,2.93234,2.93234Z" />
    <path class="cls-1"
        d="M121.19308,28.44498h4.0369c1.61915,0,2.93234-1.31318,2.93234-2.93234s-1.31318-2.93234-2.93234-2.93234h-4.0369c-1.61915,0-2.93234,1.31318-2.93234,2.93234s1.31318,2.93234,2.93234,2.93234Z" />
    <path class="cls-1"
        d="M105.32144,28.44498h4.0369c1.61915,0,2.93234-1.31318,2.93234-2.93234s-1.31318-2.93234-2.93234-2.93234h-4.0369c-1.61915,0-2.93234,1.31318-2.93234,2.93234s1.31318,2.93234,2.93234,2.93234Z" />
</svg>