<?xml version="1.0" encoding="UTF-8"?>
<svg id="Layer_1" xmlns="http://www.w3.org/2000/svg" viewBox="0 0 200 200">
    <defs>
        <style>.cls-1{fill:#0c73b2;}</style>
    </defs>
    <path class="cls-1"
        d="M63.6416,193.19824c-3.32031,0-6.02148-2.70215-6.02148-6.02246v-2.90137c0-.27637-.22363-.5-.5-.5H7.69043c-3.1377,0-5.69043-2.55273-5.69043-5.68945v-29.74316c0-5.18945,3.52246-9.6875,8.56543-10.93652l10.45215-2.24902c.23926-.05176.40625-.26953.39355-.51367-.01172-.24414-.19922-.44434-.44238-.47266-4.61816-.53027-8.10156-4.4375-8.10156-9.08691v-20.10742c0-14.07227,11.44141-25.52148,25.50488-25.52148h4.55762c2.89648,0,5.72656.47656,8.41211,1.41504.05371.01953.10938.02832.16504.02832.12695,0,.25098-.04785.3457-.13867.13574-.12988.1875-.3252.13281-.50488-.41504-1.38281-.71973-2.53516-.95898-3.62695-.11133-.50488-.56348-.87012-1.07617-.87012h-2.98242c-3.2998,0-5.98438-2.68457-5.98438-5.98438v-7.9082c0-3.2998,2.68457-5.98438,5.98438-5.98438h2.98242c.5127,0,.96484-.3623,1.07422-.8623,1.27051-5.77539,3.53516-11.22656,6.73242-16.20215.26758-.41992.19531-.99316-.16992-1.36328l-2.11133-2.0957c-1.13574-1.13477-1.76172-2.64062-1.76172-4.24023,0-1.59863.62305-3.10156,1.75586-4.2334l5.5957-5.5957c1.13379-1.11914,2.63965-1.73633,4.2373-1.73633,1.59668,0,3.09277.61523,4.21191,1.73438l2.12891,2.13086c.20312.2041.48828.32227.7793.32227.20605,0,.40527-.05664.57812-.16504,4.98828-3.18848,10.43359-5.44629,16.18848-6.71191.51465-.11719.87207-.56543.87207-1.0918v-2.9834c0-3.2998,2.68457-5.98438,5.98438-5.98438h7.9082c3.2998,0,5.98438,2.68457,5.98438,5.98438v2.9834c0,.52637.36523.97656.8877,1.09473,5.74609,1.26465,11.18555,3.52051,16.16992,6.70703.1748.10938.37305.16602.57812.16602.29199,0,.57715-.11719.7832-.32129l2.12598-2.12891c1.12305-1.12109,2.62109-1.73828,4.2207-1.73828,1.59277,0,3.09082.61328,4.21875,1.72754l5.60742,5.60645c1.13281,1.13184,1.75586,2.63477,1.75586,4.2334,0,1.59961-.62402,3.10352-1.75684,4.23438l-2.13281,2.11816c-.35645.3623-.41895.92871-.15039,1.35156,3.19531,4.97266,5.45801,10.41797,6.72754,16.1875.11035.50488.56348.87207,1.07617.87207h2.98242c3.2998,0,5.98438,2.68457,5.98438,5.98438v7.9082c0,3.2998-2.68457,5.98438-5.98438,5.98438h-2.98242c-.5127,0-.96484.3623-1.07422.8623-.23828,1.09668-.54297,2.25195-.95898,3.6377-.05469.17969-.00293.375.13281.50488.09473.09082.21875.13867.3457.13867.05566,0,.11133-.00879.16504-.02832,2.69043-.94043,5.52539-1.41797,8.42676-1.41797h4.54102c14.07227,0,25.52148,11.44922,25.52148,25.52148v20.10742c0,4.65332-3.48535,8.56055-8.10742,9.08789-.24316.02832-.43066.22754-.44238.47266-.0127.24414.1543.46191.39355.51367l10.3877,2.23047c5.06836,1.25391,8.61914,5.75977,8.61914,10.9541v29.74316c0,3.13672-2.55273,5.68945-5.69043,5.68945h-49.42969c-.27637,0-.5.22363-.5.5v2.90137c0,3.32031-2.70117,6.02246-6.02148,6.02246H63.6416ZM124.2002,172.55469c1.3418,0,2.43262,1.09082,2.43262,2.43262v12.84668c0,.27637.22363.5.5.5h9.22559c.6377,0,1.15723-.51953,1.15723-1.1582v-32.81641c0-3.37207-2.27832-6.2998-5.54004-7.11816l-12.04004-2.58203c-.03516-.00684-.07031-.01074-.10449-.01074-.22266,0-.42383.14844-.4834.37109l-4.80469,17.97559c-.2207.75195-.71777,1.32129-1.38184,1.6084-.30859.13477-.63379.20312-.9707.20312l-.22461-.03125c-.36035-.0332-.66113-.11621-.91895-.25391l-7.875-4.2041c-.07324-.03906-.1543-.05859-.23535-.05859-.08887,0-.17773.02344-.25684.07129-.15137.08984-.24316.25293-.24316.42871v27.0752c0,.27637.22363.5.5.5h18.33105c.27637,0,.5-.22363.5-.5v-12.84668c0-1.3418,1.09082-2.43262,2.43262-2.43262ZM75.82324,172.55469c1.3418,0,2.43262,1.09082,2.43262,2.43262v12.84668c0,.27637.22363.5.5.5h18.31543c.27637,0,.5-.22363.5-.5v-27.07324c0-.17578-.0918-.33789-.24219-.42871-.0791-.04785-.16895-.07129-.25781-.07129-.08105,0-.16113.01953-.23535.05859l-7.87305,4.2002c-.07031.03809-.14551.06055-.21973.08594,0,0-.22266.08301-.23145.08594-.15625.05078-.24707.05859-.33887.06836l-.18164.02344c-.0332.00586-.06738.01172-.10156.0127-.02246.00098-.08789.00879-.11035.0127-.29785-.00195-.62305-.06934-.92969-.20312-.68555-.29785-1.18848-.88184-1.38086-1.60254l-4.81055-17.9834c-.06055-.22168-.26172-.37012-.4834-.37012-.03418,0-.06934.00391-.10547.01074l-12.08691,2.59961c-3.24316.80859-5.49805,3.72656-5.49805,7.09961v32.81641c0,.62793.53027,1.1582,1.15723,1.1582h9.25c.27637,0,.5-.22363.5-.5v-12.84668c0-1.3418,1.09082-2.43262,2.43164-2.43262ZM181.29199,164.61426c1.34082,0,2.43164,1.09082,2.43164,2.43164v11.36426c0,.27637.22363.5.5.5h8.08594c.46289,0,.82617-.3623.82617-.8252v-29.74316c0-2.95215-1.99512-5.50781-4.85156-6.21582l-10.65332-2.28711c-.03516-.00684-.07031-.01074-.10449-.01074-.22266,0-.42383.14844-.4834.37109l-4.28516,16.04102c-.19238.7207-.69629,1.30566-1.38086,1.60254-.20801.0791-.35938.12598-.50586.1543l-.14551.01367c-.1543.02148-.2373.03516-.32129.03516-.12695-.00977-.20215-.02344-.27832-.03516l-.19531-.02734c-.04883-.00586-.09766-.00977-.14453-.02148-.04785-.01367-.09766-.03613-.14746-.05664l-.25098-.09668c-.04297-.01465-.08691-.02637-.12793-.04883l-6.7373-3.59668c-.07324-.03809-.15332-.05762-.2334-.05762-.08984,0-.17871.02441-.25879.07227-.14941.08984-.24121.25293-.24121.42773v23.80469c0,.27637.22363.5.5.5h16.07031c.27637,0,.5-.22363.5-.5v-11.36426c0-1.34082,1.09082-2.43164,2.43262-2.43164ZM141.18555,139.83008c-.03418,0-.06934.00391-.10547.01074l-7.92773,1.70508c-.22656.04883-.38965.24707-.39453.47949-.00488.23145.15137.43652.37598.49414.18652.04785.36328.11621.54004.18262.1123.04297.22559.08594.34082.125l.33594.1084c.24805.0791.49707.15625.73145.25977.19141.08398.36816.18652.54492.28906l.30762.17285.30957.16113c.21484.10938.43066.21875.62988.34961.18945.12402.36133.26562.5332.40723l.26953.21777.28418.21484c.16992.125.34082.25098.49512.39258.18359.16992.34766.3584.5127.54688l.22266.25c.0791.08789.16113.17285.24414.25781.12793.13184.25586.2627.36914.40723.17383.22363.32324.46484.47266.70703l.16406.2627c.0625.09766.12891.19336.19531.28906.08984.12988.18164.25879.25684.39844.15234.27734.27051.57031.39062.86328l.10938.26367c.04395.10449.0918.20605.14062.30762.06055.12793.12207.25488.16992.39062.12305.35547.20703.73242.2959,1.13086l.04492.19922c.02246.10254.05176.20215.08008.30176.03125.10645.06348.21289.08203.32422.11426.67676.17285,1.36914.17285,2.05859v24.05078c0,.27637.22363.5.5.5h13.54492c.27637,0,.5-.22363.5-.5v-23.7998c0-.17578-.0918-.33789-.24219-.42871-.0791-.04785-.16895-.07129-.25781-.07129-.08105,0-.16113.01953-.23535.05859l-6.73438,3.58984c-.04102.02246-.08496.03418-.12891.04883,0,0-.23242.08887-.2373.09082-.05566.02441-.11035.0498-.16797.06543-.03027.00781-.06445.00977-.09766.01367-.00684.00098-.10449.01367-.11035.01465-.13965.02441-.25.04492-.36133.04688-.03027.00098-.08496.00781-.11426.0127.01074-.00586-.05078-.01562-.1123-.02441-.00293,0-.21582-.02344-.21582-.02344-.23926-.04004-.40234-.08887-.54883-.15137-.01465-.00684-.03027-.01367-.0459-.01953-.68457-.31348-1.1709-.8877-1.36133-1.59375l-4.28418-16.03809c-.05957-.22266-.26074-.37109-.4834-.37109ZM43.58301,154.1084c-.08887,0-.17871.02344-.25684.07129-.15137.09082-.24316.25293-.24316.42871v23.80176c0,.27637.22363.5.5.5h13.53711c.27637,0,.5-.22363.5-.5v-24.05078c0-5.61328,3.80859-10.48047,9.2627-11.83691.2041-.08203.36523-.29883.34668-.51758-.01855-.21973-.14258-.41211-.3584-.45898l-7.94727-1.70605c-.03516-.00684-.07031-.01074-.10449-.01074-.22266,0-.42383.14844-.4834.37109l-4.28906,16.04199c-.19238.7207-.69434,1.30371-1.37891,1.60059-.1543.06738-.32129.11816-.5127.15625-.00098,0-.12598.01074-.12695.01074-.15039.02148-.23926.03613-.33008.03613-.15234-.00977-.24805-.02832-.34473-.04492l-.15918-.02246c-.03711-.00391-.0752-.00684-.11133-.0166-.1377-.03613-.27148-.09473-.4043-.15723-.01855-.00781-.10449-.04004-.12402-.04688l-6.73633-3.59082c-.07422-.03906-.1543-.05859-.23535-.05859ZM18.73047,164.61426c1.34082,0,2.43164,1.09082,2.43164,2.43164v11.36426c0,.27637.22363.5.5.5h16.05664c.27637,0,.5-.22363.5-.5v-23.7998c0-.17578-.0918-.33789-.24316-.42871-.07812-.04785-.16797-.07129-.25684-.07129-.08105,0-.16211.01953-.23535.05859l-6.72852,3.58789c-.16211.08594-.34277.15527-.53516.20508-.03809.00977-.07715.01367-.11719.01758l-.12598.01758c-.14746.02246-.23047.03809-.31641.04004-.02441.00098-.08594.00781-.11133.0127-.06348-.00391-.18066-.02344-.29883-.04102-.0127-.00195-.08887-.01074-.10254-.01172-.18848-.03516-.35938-.08594-.51367-.15234-.68359-.29785-1.18652-.88184-1.37891-1.60254l-2.17285-8.12793-2.12305-7.91602c-.06055-.22168-.26172-.37012-.4834-.37012-.03418,0-.06934.00391-.10547.01074l-10.70898,2.30469c-2.83008.70312-4.79688,3.25-4.79688,6.19824v29.74316c0,.46289.36328.8252.82617.8252h8.10742c.27637,0,.5-.22363.5-.5v-11.36426c0-1.34082,1.09082-2.43164,2.43262-2.43164ZM89.18359,142.71094c-.03516,0-.07031.00391-.10547.01172l-3.2666.7041c-.13379.02832-.25.11035-.32129.22754s-.0918.25781-.05664.38965l3.78516,14.13086c.04004.14648.14453.26855.28418.3291.06348.02734.13184.04102.19922.04102.08105,0,.16211-.01953.23535-.05859l6.22949-3.3252c.12012-.06445.20898-.1748.24609-.30566s.01855-.27148-.0498-.38867l-4.46973-7.62695c-.0127-.02148-.04492-.06543-.05957-.08496l-2.21875-3.79688c-.09082-.15527-.25684-.24707-.43164-.24707ZM110.83398,142.70996c-.1748,0-.34082.0918-.43164.24805l-6.75488,11.50879c-.06836.11719-.08691.25781-.0498.38867s.12598.24121.24609.30566l6.2334,3.3252c.07324.03906.1543.05859.23535.05859.06738,0,.13574-.01367.19922-.04102.13965-.06152.24414-.18262.28418-.33008l3.77441-14.13184c.03516-.13184.01465-.27246-.05664-.38965-.07129-.11621-.1875-.19922-.32129-.22754l-3.25293-.70312c-.03516-.00781-.07031-.01172-.10547-.01172ZM149.41504,138.04785c-.03516,0-.07031.00391-.10547.01172l-2.48926.53906c-.13379.02832-.25.11133-.32129.22754-.07129.11719-.0918.25781-.05664.38965l3.2627,12.19824c.04004.14746.14453.26855.28418.33008.06348.02734.13184.04102.19922.04102.08105,0,.16211-.01953.23535-.05859l5.0957-2.71973c.12012-.06445.20898-.1748.24609-.30566s.01855-.27148-.0498-.38867l-5.86914-10.01758c-.09082-.15527-.25684-.24707-.43164-.24707ZM50.60449,138.0498c-.1748,0-.33984.0918-.43164.24707l-5.88086,10.01953c-.06836.11719-.08691.25781-.0498.38867s.12598.24121.24609.30566l5.09277,2.71582c.07324.03906.1543.05859.23535.05859.06738,0,.13574-.01367.19922-.04102.13965-.06152.24414-.18262.28418-.33008l3.26074-12.20117c.03516-.13184.01465-.27246-.05664-.38965-.07129-.11621-.1875-.19922-.32129-.22754l-2.47266-.53418c-.03516-.00781-.07031-.01172-.10547-.01172ZM169.31055,138.0498c-.1748,0-.33984.0918-.43164.24707l-5.87988,10.01758c-.06836.11719-.08691.25781-.0498.38867s.12598.24121.24609.30566l5.09668,2.7168c.07324.03906.1543.05859.23535.05859.06738,0,.13574-.01367.19922-.04102.13965-.06152.24414-.18262.28418-.33008l3.26074-12.19922c.03516-.13184.01465-.27246-.05664-.38965-.07129-.11621-.1875-.19922-.32129-.22754l-2.47754-.53516c-.03516-.00781-.07031-.01172-.10547-.01172ZM30.70801,138.04785c-.03516,0-.07031.00391-.10547.01172l-2.48828.53906c-.13379.02832-.25.11133-.32129.22754-.07129.11719-.0918.25781-.05664.38965l3.26562,12.19727c.04004.14648.14453.26855.28418.3291.06348.02734.13184.04102.19922.04102.08105,0,.16211-.01953.23535-.05859l5.09277-2.71777c.12012-.06445.20898-.1748.24609-.30566s.01855-.27148-.0498-.38867l-5.87012-10.01758c-.09082-.15527-.25684-.24707-.43164-.24707ZM93.5752,137.56055c-.10742,0-.21289.03418-.30078.10059-.12598.09473-.19922.24219-.19922.39941v1.04004c0,.08887.02344.17578.06836.25293l6.43066,10.97363c.08984.15332.25391.24707.43164.24707h0c.17773,0,.3418-.09375.43164-.24707l3.50293-5.9668c.01465-.02637.03516-.06934.04492-.09863l2.89355-4.91113c.0459-.07617.06934-.16406.06934-.25293v-1.05371c0-.15625-.07324-.30469-.19824-.39844-.08789-.06641-.19434-.10156-.30176-.10156-.0459,0-.0918.00586-.13672.01855-.09473.02734-.19141.0498-.28809.07227l-.23242.05664c-.25684.06738-.51562.13379-.77441.19141-.69238.1543-1.33105.26855-1.9502.35059-.26953.03711-.53809.06152-.80664.08496l-.1377.0127c-.5166.04785-1.03223.07812-1.54688.0918-.09863.00293-.19727.01074-.2959.01855-.09277.00781-.18555.01562-.2793.01562-.06738,0-.13477-.00586-.20215-.01172-.08203-.00684-.16504-.01367-.24805-.01562-.61816-.01074-1.26074-.0498-1.91309-.11523,0,0-.43457-.04199-.55566-.05762-.77344-.09668-1.57324-.24121-2.37891-.43164l-.5-.12207c-.16406-.03906-.32812-.07715-.48926-.12305-.04492-.0127-.0918-.01953-.1377-.01953ZM153.97754,134.23535c-.17871,0-.34473.0957-.43359.25098-.08887.15625-.08887.34766.00195.50195l5.38184,9.18457c.08984.15332.25391.24707.43164.24707h0c.17773,0,.3418-.09375.43164-.24707l5.39062-9.18457c.08984-.1543.0918-.3457.00195-.50098-.08887-.15625-.25391-.25195-.43359-.25195h-10.77246ZM35.27051,134.23535c-.17969,0-.34473.0957-.43359.25098-.08887.15625-.08887.34766.00195.50195l5.38281,9.18457c.08984.15332.25391.24707.43164.24707h0c.17773,0,.3418-.09375.43164-.24707l5.39062-9.18457c.08984-.1543.0918-.3457.00195-.50098-.08887-.15625-.25391-.25195-.43359-.25195h-10.77344ZM72.44141,107.90137c-.29395,0-.58496.12207-.79883.33594l-2.13379,2.11914c-.23242.23242-.50391.45117-.85547.69043-.13672.09277-.21875.24707-.21875.41309v13.62305c0,4.65234-3.48438,8.55957-8.10547,9.08789-.24316.02832-.43066.22852-.44238.47266-.0127.24414.1543.46191.39453.51367l10.38574,2.23047c1.98828.4873,3.82129,1.50977,5.28906,2.95312.09473.09277.2207.14355.35059.14355.03516,0,.07031-.00391.10547-.01074l11.4043-2.45508c.23047-.0498.39453-.25391.39453-.48926v-2.08301c0-.17383-.08984-.33496-.23828-.42578-6.79199-4.18066-10.84766-11.45312-10.84766-19.4541v-4.84766c0-.18652-.10352-.35645-.26855-.44336-1.49414-.78125-2.71973-1.48438-3.85547-2.21191-.16406-.10645-.3584-.16211-.55957-.16211ZM123.59668,140.47168c.03418.00684.06934.01074.10449.01074.12988,0,.25684-.05078.35156-.14453,1.45605-1.44141,3.26562-2.45605,5.2334-2.93555l10.43652-2.24512c.23926-.05176.40625-.26953.39355-.51367-.01172-.24512-.19922-.44434-.44238-.47266-4.62207-.52637-8.1084-4.43359-8.1084-9.08789v-13.62402c0-.16504-.08203-.32031-.21875-.41309-.35254-.24023-.62598-.46094-.86133-.69531l-2.12207-2.10645c-.21484-.21582-.50879-.33984-.80664-.33984-.2002,0-.39453.05566-.56055.16016-1.1084.71094-2.32812,1.41113-3.83789,2.20508-.16504.08594-.26758.25684-.26758.44238v4.85449c0,8.00488-4.05273,15.2793-10.83984,19.45898-.14844.09082-.23828.25195-.23828.42578v2.07812c0,.23535.16406.43945.39453.48828,0,0,6.02344,1.30273,6.03223,1.30469h-.00098l5.3584,1.14941ZM82.49023,110.82129c-.13184,0-.25781.05176-.35156.14453-.09473.09375-.14844.22168-.14844.35547v4.24512c0,6.78125,3.74414,12.91797,9.77148,16.01562,2.48242,1.29297,5.31152,1.97754,8.17969,1.97754,2.66992,0,5.35449-.59766,7.7627-1.72754.07324-.03516.14551-.06445.21777-.09473.10449-.04395.20801-.08789.30957-.1377.01562-.00684.03027-.0127.04395-.01953,6.0166-3.09473,9.75098-9.22949,9.75098-16.01367v-4.05176c0-.27148-.2168-.49316-.48828-.5-6.02148-.14551-10.22559-3.5459-12.69238-6.37305-.09863-.11328-.2373-.1709-.37695-.1709-.11621,0-.23145.04004-.32617.12109-6.29883,5.42285-15.95312,6.23242-21.14746,6.23242,0,0-.50293-.00293-.50488-.00293ZM170.05762,102.01172c4.34668,0,7.88379,3.53711,7.88379,7.88477v7.19922c0,4.21484-1.56836,8.27832-4.41699,11.44043-.13281.14746-.16602.35742-.08594.53809s.25977.29688.45703.29688h4.10254c2.36426,0,4.28711-1.92383,4.28711-4.28809v-20.10742c0-11.39062-9.2666-20.65723-20.65723-20.65723h-4.54102c-4.68457,0-9.09375,1.52832-12.75098,4.41895-4.38672,3.44336-7.14746,8.37109-7.77246,13.87305-.08887.77832-.13379,1.57422-.13379,2.36523v20.10742c0,2.36426,1.92285,4.28809,4.28613,4.28809h4.11523c.19727,0,.37695-.11621.45703-.29688s.04688-.39062-.08594-.53809c-2.84863-3.16211-4.41699-7.22559-4.41699-11.44043v-7.19922c0-4.34766,3.53613-7.88477,7.88281-7.88477h21.38965ZM51.35156,102.01172c4.34668,0,7.88379,3.53711,7.88379,7.88477v7.19922c0,4.21484-1.56934,8.27832-4.41797,11.44043-.13281.14746-.16602.35742-.08594.53809s.25977.29688.45703.29688h4.0957c2.36328,0,4.28613-1.92383,4.28613-4.28809v-20.10742c0-6.39355-2.88379-12.31543-7.91309-16.24609-3.65039-2.88574-8.05176-4.41113-12.72754-4.41113h-4.55762c-11.38086,0-20.63965,9.2666-20.63965,20.65723v20.10742c0,2.36426,1.92285,4.28809,4.28613,4.28809h4.10645c.19727,0,.37695-.11621.45703-.29688s.04688-.39062-.08594-.53809c-2.84863-3.16211-4.41797-7.22559-4.41797-11.44043v-7.19922c0-4.34766,3.53711-7.88477,7.88379-7.88477h21.38965ZM148.66797,106.87598c-1.66406,0-3.01855,1.35547-3.01855,3.02051v7.19922c0,6.76465,5.50293,12.26758,12.2666,12.26758h2.89453c6.76367,0,12.2666-5.50293,12.2666-12.26758v-7.19922c0-1.66504-1.35449-3.02051-3.01953-3.02051h-21.38965ZM29.96191,106.87598c-1.66504,0-3.01953,1.35547-3.01953,3.02051v7.19922c0,6.76465,5.50293,12.26758,12.26758,12.26758h2.89355c6.76465,0,12.26758-5.50293,12.26758-12.26758v-7.19922c0-1.66504-1.35449-3.02051-3.01953-3.02051h-21.38965ZM104.91602,97.97754c.82715.05566,1.56055.52246,1.96289,1.24902.15332.27246,3.79102,6.59766,10.625,6.91016.00684.00098.01465.00098.02246.00098.12793,0,.25195-.0498.3457-.13867.09863-.09375.1543-.22461.1543-.36133v-3.89551c0-4.51074-1.67676-8.82422-4.72266-12.14453l-.07617-.08594c-.16992-.19043-.32129-.34277-.47266-.49414-3.40137-3.41895-7.93164-5.30176-12.75488-5.30176-5.05371,0-9.90723,2.14746-13.31543,5.89062-3.02734,3.31641-4.69434,7.62695-4.69434,12.13574v3.70703c0,.27441.2207.49707.49512.5l.50098.00293c5.4502,0,15.27246-.91016,19.81445-7.00195.46484-.62207,1.1748-.97852,1.94922-.97852.05469,0,.11035.00195.16602.00586ZM72.45215,103.04785c1.13379,0,2.22949.31738,3.16797.91602.24805.1582.49609.31445.74316.46582.08008.0498.1709.07422.26172.07422.08398,0,.16797-.02148.24414-.06348.1582-.08887.25586-.25586.25586-.43652v-2.26172c0-4.6748,1.41992-9.18555,4.10645-13.04688.14355-.20508.1123-.48535-.07227-.6543-5.81055-5.31543-9.14355-12.85449-9.14355-20.68262,0-15.43066,12.55371-27.98438,27.98438-27.98438,15.42188,0,27.96875,12.55371,27.96875,27.98438,0,7.82812-3.32812,15.35742-9.13086,20.65918-.18555.16992-.2168.4502-.07227.65625,2.69824,3.84668,4.125,8.36523,4.125,13.06836v2.25195c0,.18066.09766.34766.25586.43652.07617.04199.16016.06348.24414.06348.09082,0,.18164-.02441.26172-.07422.24316-.14941.48438-.2998.72363-.4541.93945-.59863,2.03711-.91602,3.17188-.91602,1.1709,0,2.30664.33301,3.28223.96484.08203.05273.17676.08008.27148.08008.07812,0,.15527-.01855.22754-.05469.15918-.08105.2627-.24121.27148-.41895.00879-.16016.02832-.31836.04785-.47656.0166-.12891.03223-.25781.04297-.3877.03418-.40527.07227-.80664.125-1.20605.07031-.52832.16602-1.0498.26855-1.57031l.03906-.19629c.0625-.32129.125-.6416.2041-.95703.12988-.52832.29004-1.04199.45215-1.55566l.09473-.30762c.0791-.25781.15723-.51562.25-.76855.19727-.53809.42871-1.05859.66211-1.58203l.15234-.35352c.08301-.19629.16504-.39258.25977-.58398.3252-.6582.70117-1.29688,1.02539-1.83496.05371-.08984.10352-.18066.15332-.27148.05078-.09473.10156-.18945.16016-.28027.47852-.75098,1.01562-1.49902,1.5957-2.22266.0957-.11816.19824-.23047.30078-.34277.08398-.09082.16797-.18262.24805-.27734.42676-.49707.84863-.98242,1.30762-1.44336.15723-.15723.32617-.30762.49414-.45801l.29102-.2627.32812-.30859c.22656-.21484.45117-.43066.69434-.63086.05566-.04688.10156-.10449.13281-.16992,1.46387-3.05273,2.57031-6.27734,3.29004-9.58301.58887-2.72168,3.04004-4.69727,5.8291-4.69727h2.98242c.61719,0,1.12012-.50293,1.12012-1.12012v-7.9082c0-.61719-.50293-1.12012-1.12012-1.12012h-2.98242c-2.78809,0-5.23926-1.97656-5.8291-4.69922-1.14355-5.2002-3.18652-10.11133-6.06934-14.59961-1.50684-2.3584-1.17773-5.40723.80176-7.41211l2.14453-2.12988c.20898-.20898.32422-.48828.32422-.78711s-.11719-.58008-.33105-.79395l-5.5957-5.5957c-.20801-.20312-.49316-.31738-.78711-.31738-.30078,0-.5791.11328-.78516.31934l-2.125,2.12695c-1.13672,1.13477-2.63281,1.75879-4.21484,1.75879-1.12988,0-2.2373-.3252-3.2041-.94238-4.50488-2.87891-9.42188-4.91797-14.61328-6.05957-2.76074-.625-4.69141-3.02832-4.69141-5.84277v-2.9834c0-.61719-.50293-1.12012-1.12012-1.12012h-7.9082c-.61719,0-1.12012.50293-1.12012,1.12012v2.9834c0,2.81445-1.92285,5.21582-4.67676,5.83984-5.20117,1.14355-10.12207,3.18359-14.62598,6.0625-.96875.61621-2.0791.94238-3.20996.94238-1.58008,0-3.07422-.62402-4.20801-1.75781l-2.12988-2.12988c-.20605-.2041-.48145-.31543-.77832-.31543-.29883,0-.59082.11816-.80078.32422l-5.58691,5.58691c-.21387.21387-.33105.49512-.33105.79395s.11719.58105.33105.79297l2.12012,2.10645c1.98828,2.01367,2.32812,5.06836.82324,7.4248-2.88574,4.49121-4.92969,9.4082-6.0752,14.6123-.58887,2.71875-3.03906,4.69141-5.82715,4.69141h-2.98242c-.61719,0-1.12012.50293-1.12012,1.12012v7.9082c0,.61719.50293,1.12012,1.12012,1.12012h2.98242c2.78906,0,5.24023,1.97656,5.8291,4.69922.71875,3.28223,1.82129,6.49902,3.27734,9.56445.03125.06641.07715.125.13379.1709.2373.19531.45801.40527.67871.61523l.33789.31641.29395.26562c.17188.15234.34277.30469.50488.46582.43555.43555.83594.89453,1.27637,1.40723.08301.09668.16992.19141.25586.28516.11133.12109.22168.24121.32422.36816.5791.72168,1.11523,1.4668,1.59277,2.21582.0625.09766.11719.19824.17188.29785.0498.0918.09961.18359.15332.27344.32324.53613.69727,1.1709,1.01758,1.81836.09375.18848.1748.38281.25684.57715l.1543.35938c.24316.54492.4707,1.05664.66309,1.58398.08984.24512.16602.49316.24121.74121l.10449.33594c.16211.51562.32324,1.03027.45312,1.55859.0791.31934.1416.6416.20508.96387l.03809.19238c.10352.52246.19824,1.04395.26855,1.5752.05371.40039.0918.80371.12598,1.20801.01074.12988.02637.25879.04297.3877.01953.15918.03906.31836.04785.48047.00879.17773.11328.33789.27148.41895.07227.03613.14941.05469.22754.05469.09473,0,.18945-.02734.27246-.08105.97266-.63086,2.10742-.96484,3.28125-.96484ZM100,44.23828c-12.74805,0-23.12012,10.37207-23.12012,23.12012,0,6.58789,2.66406,12.64551,7.50195,17.05664.0957.08691.21582.13086.33691.13086.11621,0,.23242-.04004.32715-.12109.51562-.44629,1.05664-.87207,1.60645-1.2666.57715-.41309,1.18359-.80273,1.86426-1.19824.12402-.07227.25195-.1377.37988-.2041l.25684-.13574c.43945-.23633.88281-.46582,1.33691-.6748.20898-.0957.4209-.18359.63281-.27051l.14062-.05762c.42871-.17773.85938-.34473,1.29688-.49609.27441-.09473.54883-.18359.82617-.26758.44434-.13477.89258-.25195,1.34473-.36035l.16797-.04004c.21777-.05176.43555-.10449.65527-.14844.49316-.09863.99219-.1709,1.49316-.23633l.27539-.04004c.14551-.02148.29004-.04395.4375-.05859.80371-.0791,1.53613-.11816,2.23926-.11816.69727,0,1.43066.03613,2.17773.10645.14551.0127.28809.03418.42969.05566l.28125.04004c.47852.05957.9541.12012,1.4248.20898.18652.03613.37109.08008.55566.12402l.26855.06348c.42188.0957.8418.19434,1.25586.31348.24805.07129.49219.1543.7373.23633l.11328.03809c.3916.13086.78223.26562,1.16699.41699.2832.1123.5625.23438.8418.35742.37305.16504.73926.33887,1.10352.52344.27344.13965.54395.28418.8125.43457.35547.2002.70508.41309,1.05078.63281.25879.16406.51562.32715.7666.50195.3457.24023.67969.49609,1.01172.75488l.17188.13281c.17871.1377.35645.27539.5293.42188l.2373.1875c.09375.08301.21191.12402.3291.12402.12109,0,.24219-.04395.33789-.13184,4.7666-4.37305,7.5-10.58301,7.5-17.03613,0-12.74805-10.36426-23.12012-23.10352-23.12012Z" />
</svg>