<?xml version="1.0" encoding="UTF-8"?>
<svg id="Layer_1" xmlns="http://www.w3.org/2000/svg" version="1.1" viewBox="0 0 200 200">
  <!-- Generator: Adobe Illustrator 29.0.1, SVG Export Plug-In . SVG Version: 2.1.0 Build 192)  -->
  <defs>
    <style>
      .st0 {
        stroke-miterlimit: 10;
      }

      .st0, .st1 {
        fill: none;
        stroke: #0c73b2;
        stroke-width: 3px;
      }

      .st1 {
        stroke-linecap: round;
        stroke-linejoin: round;
      }
    </style>
  </defs>
  <path class="st1" d="M94.92,80.14h10.14c18.59,0,33.68,15.09,33.68,33.68v20.82H61.24v-20.82c0-18.59,15.09-33.68,33.68-33.68Z"/>
  <g>
    <line class="st1" x1="81.62" y1="110.13" x2="81.62" y2="134.63"/>
    <line class="st1" x1="118.36" y1="110.13" x2="118.36" y2="134.63"/>
  </g>
  <circle class="st0" cx="99.99" cy="57.29" r="17.64"/>
  <path class="st1" d="M49.23,103.55c-27.11,5.43-45.16,15.07-45.16,26.07,0,16.97,42.95,30.73,95.93,30.73s95.93-13.76,95.93-30.73c0-11-18.05-20.64-45.16-26.07"/>
  <path class="st1" d="M150.75,115.3c12.86,3.54,20.81,8.41,20.81,13.79,0,10.8-32.04,19.56-71.57,19.56s-71.57-8.76-71.57-19.56c0-5.38,7.95-10.25,20.81-13.79"/>
</svg>