<?xml version="1.0" encoding="UTF-8"?>
<svg id="Layer_1" xmlns="http://www.w3.org/2000/svg" version="1.1" viewBox="0 0 200 200">
  <!-- Generator: Adobe Illustrator 29.0.1, SVG Export Plug-In . SVG Version: 2.1.0 Build 192)  -->
  <defs>
    <style>
      .st0 {
        fill: #0c73b2;
      }
    </style>
  </defs>
  <path class="st0" d="M80,166.5c-5.79,0-10.5-4.71-10.5-10.5v-8.56c0-2.05-1.14-3.94-2.91-4.82-27.68-13.92-43.67-42.92-40.73-73.87C29.15,33.9,56.77,5.82,91.52,1.98c2.88-.32,5.78-.48,8.63-.48,18.51,0,35.63,6.57,49.52,18.99,15.77,14.12,24.82,34.36,24.82,55.52,0,28.35-15.76,53.87-41.13,66.62-1.75.9-2.87,2.79-2.87,4.82v8.56c0,5.79-4.71,10.5-10.5,10.5h-40ZM76,150.5c-.83,0-1.5.67-1.5,1.5v4c0,3.03,2.47,5.5,5.5,5.5h40c3.03,0,5.5-2.47,5.5-5.5v-4c0-.83-.67-1.5-1.5-1.5h-48ZM123.89,145.5c.16.04.35.08.58.08.67,0,1.25-.44,1.44-1.08.82-2.79,2.73-5.11,5.23-6.36,23.65-11.87,38.35-35.68,38.35-62.14,0-19.72-8.43-38.6-23.14-51.79-12.93-11.58-28.94-17.7-46.28-17.7-2.89,0-5.52.15-8.02.45-32.4,3.55-58.16,29.74-61.23,62.27-2.74,28.91,12.18,55.96,38.02,68.92,2.58,1.31,4.44,3.56,5.23,6.35.18.65.77,1.09,1.44,1.09.25,0,.46-.05.58-.08h19.89c.83,0,1.5-.67,1.5-1.5v-8c0-.83-.67-1.5-1.5-1.5h-8c-1.38,0-2.5-1.12-2.5-2.5,0-6.45-3.33-12.23-8.91-15.46-2.75-1.57-5.83-2.39-8.93-2.39s-6.17.83-8.89,2.39c-.38.23-.8.35-1.23.35-.22,0-.44-.03-.66-.09-.68-.16-1.22-.57-1.54-1.13l-12.01-20.81c-.34-.58-.43-1.25-.25-1.88.17-.64.59-1.17,1.17-1.5,5.6-3.26,8.92-9.04,8.92-15.47s-3.33-12.21-8.9-15.46c-.6-.34-1.02-.87-1.19-1.51-.17-.64-.08-1.3.25-1.88l12-20.8c.33-.58.86-.99,1.48-1.13.28-.08.5-.11.72-.11.43,0,.85.11,1.2.33,2.75,1.58,5.83,2.41,8.93,2.41s6.18-.83,8.92-2.39c5.59-3.23,8.92-9.01,8.92-15.46,0-1.38,1.12-2.5,2.5-2.5h24c1.38,0,2.5,1.12,2.5,2.5,0,6.45,3.33,12.23,8.91,15.46,2.75,1.57,5.82,2.39,8.91,2.39s6.17-.83,8.9-2.39c.39-.24.8-.35,1.23-.35.22,0,.44.03.66.09.68.16,1.22.57,1.54,1.13l12.01,20.81c.34.58.43,1.25.25,1.88-.17.64-.59,1.17-1.17,1.5-5.6,3.26-8.92,9.04-8.92,15.47s3.33,12.21,8.9,15.46c.6.34,1.02.87,1.19,1.51.17.64.08,1.3-.25,1.88l-12,20.8c-.33.58-.86.99-1.48,1.13-.28.08-.5.11-.72.11-.43,0-.85-.11-1.2-.33-2.75-1.58-5.83-2.41-8.93-2.41s-6.18.83-8.92,2.39c-5.59,3.23-8.92,9.01-8.92,15.46,0,1.38-1.12,2.5-2.5,2.5h-8c-.83,0-1.5.67-1.5,1.5v8c0,.83.67,1.5,1.5,1.5h19.89ZM67.68,109.13c3.97,0,7.91,1.07,11.42,3.09,5.97,3.45,10.02,9.29,11.11,16.02.12.73.74,1.26,1.48,1.26h16.64c.74,0,1.36-.53,1.48-1.26,1.09-6.73,5.14-12.57,11.11-16.02,3.5-2.02,7.45-3.09,11.42-3.09,2.74,0,5.44.5,8.02,1.48.17.07.35.1.53.1.52,0,1.02-.27,1.3-.75l8.32-14.4c.37-.63.22-1.44-.35-1.91-5.29-4.35-8.33-10.78-8.33-17.64s3.04-13.29,8.33-17.64c.57-.47.71-1.27.35-1.91l-8.32-14.4c-.27-.48-.78-.75-1.3-.75-.18,0-.36.03-.53.1-2.58.98-5.28,1.47-8.02,1.47-3.97,0-7.91-1.07-11.42-3.09-5.97-3.45-10.02-9.29-11.11-16.02-.12-.73-.75-1.26-1.48-1.26h-16.64c-.74,0-1.36.53-1.48,1.26-1.09,6.73-5.14,12.57-11.11,16.02-3.5,2.02-7.45,3.09-11.42,3.09-2.74,0-5.44-.5-8.02-1.47-.17-.07-.35-.1-.53-.1-.52,0-1.02.27-1.3.75l-8.32,14.4c-.37.63-.22,1.44.35,1.91,5.29,4.35,8.33,10.78,8.33,17.64s-3.04,13.29-8.33,17.64c-.57.47-.71,1.27-.35,1.91l8.32,14.4c.27.48.78.75,1.3.75.18,0,.36-.03.53-.1,2.58-.98,5.28-1.48,8.02-1.48Z"/>
  <path class="st0" d="M72,198.5c-1.38,0-2.5-1.12-2.5-2.5s1.12-2.5,2.5-2.5h56c1.38,0,2.5,1.12,2.5,2.5s-1.12,2.5-2.5,2.5h-56Z"/>
  <path class="st0" d="M72,182.5c-1.38,0-2.5-1.12-2.5-2.5s1.12-2.5,2.5-2.5h56c1.38,0,2.5,1.12,2.5,2.5s-1.12,2.5-2.5,2.5h-56Z"/>
  <path class="st0" d="M4,78.51c-1.38,0-2.5-1.12-2.5-2.5s1.12-2.5,2.5-2.5h8c1.38,0,2.5,1.12,2.5,2.5s-1.12,2.5-2.5,2.5h-8Z"/>
  <path class="st0" d="M9.83,111.33c-1.05,0-2.04-.67-2.39-1.64-.23-.63-.2-1.31.08-1.91.28-.61.78-1.06,1.41-1.29l7.52-2.74c.28-.1.57-.16.86-.16,1.04,0,1.98.66,2.34,1.65.23.63.2,1.31-.08,1.91-.28.61-.78,1.06-1.41,1.29l-7.52,2.74c-.26.1-.54.14-.81.14h0Z"/>
  <path class="st0" d="M26.48,140.19c-.76,0-1.46-.32-1.93-.88-.43-.51-.63-1.16-.58-1.82.06-.67.37-1.27.88-1.7l6.13-5.14c.45-.38,1.01-.58,1.6-.58.74,0,1.44.33,1.92.89.43.51.63,1.16.58,1.82-.06.67-.37,1.27-.88,1.7l-6.13,5.14c-.44.37-1,.57-1.59.57h0Z"/>
  <path class="st0" d="M17.28,48.41c-.28,0-.56-.05-.82-.15l-7.52-2.74c-.63-.23-1.13-.69-1.41-1.29-.28-.6-.31-1.28-.08-1.91.36-.99,1.3-1.65,2.34-1.65.29,0,.58.05.85.15l7.52,2.74c.63.23,1.13.69,1.41,1.29.28.61.31,1.28.08,1.91-.35.97-1.33,1.64-2.38,1.64h0Z"/>
  <path class="st0" d="M32.58,21.92c-.6,0-1.17-.2-1.6-.56l-6.13-5.14c-.51-.43-.83-1.03-.88-1.7-.06-.67.15-1.31.58-1.82.48-.57,1.18-.89,1.92-.89.58,0,1.15.21,1.6.58l6.13,5.14c.51.43.83,1.03.88,1.7.06.67-.15,1.31-.58,1.82-.46.55-1.16.87-1.93.87h0Z"/>
  <path class="st0" d="M188,78.51c-1.38,0-2.5-1.12-2.5-2.5s1.12-2.5,2.5-2.5h8c1.38,0,2.5,1.12,2.5,2.5s-1.12,2.5-2.5,2.5h-8Z"/>
  <path class="st0" d="M190.19,111.34c-.29,0-.57-.05-.84-.15l-7.52-2.74c-.63-.23-1.13-.69-1.41-1.29-.28-.6-.31-1.28-.08-1.91.36-.99,1.3-1.65,2.36-1.65.29,0,.57.05.85.15l7.52,2.74c.63.23,1.13.69,1.41,1.29.28.6.31,1.28.08,1.91-.36.99-1.31,1.65-2.36,1.65h0Z"/>
  <path class="st0" d="M173.53,140.2c-.59,0-1.16-.21-1.6-.58-.11-.09-6.13-5.14-6.13-5.14-.51-.43-.83-1.03-.88-1.7-.06-.67.15-1.31.58-1.82.48-.57,1.17-.89,1.92-.89.59,0,1.15.2,1.6.58l6.13,5.14c.51.43.83,1.03.88,1.7.06.67-.15,1.31-.58,1.82-.47.57-1.17.89-1.92.89h0Z"/>
  <path class="st0" d="M182.69,48.41c-1.47,0-2.18-1.07-2.36-2.07-.17-.97.12-2.28,1.51-2.78.19-.07,7.52-2.74,7.52-2.74.28-.1.56-.15.85-.15,1.05,0,1.99.66,2.35,1.65.23.63.2,1.31-.08,1.91-.28.61-.78,1.06-1.41,1.29l-7.52,2.74c-.28.1-.56.15-.85.15Z"/>
  <path class="st0" d="M167.43,21.93c-.75,0-1.48-.33-1.94-.88-.43-.51-.63-1.16-.58-1.82.06-.67.37-1.27.88-1.7l6.13-5.14c.46-.38,1.01-.59,1.6-.59.74,0,1.44.33,1.91.89.43.51.64,1.16.58,1.83-.06.67-.37,1.27-.88,1.7l-6.13,5.14c-.56.47-1.17.57-1.58.57h0Z"/>
  <path class="st0" d="M100.03,106.5c-.31,0-.61,0-.93-.01-16.81-.5-30.08-14.58-29.58-31.39.49-16.6,13.79-29.6,30.28-29.6.36,0,.73,0,1.1.02,8.15.24,15.71,3.64,21.3,9.57,5.59,5.93,8.53,13.68,8.3,21.82-.24,8.14-3.64,15.7-9.57,21.29-5.68,5.36-13.1,8.31-20.89,8.31ZM99.98,50.51c-6.52,0-12.72,2.47-17.47,6.94-4.96,4.67-7.8,11-8,17.8-.2,6.8,2.26,13.28,6.93,18.24,4.67,4.96,11,7.8,17.8,8,.29.01.58.02.88.02,6.44,0,12.61-2.47,17.36-6.95,4.96-4.67,7.8-11,8-17.8.2-6.81-2.26-13.29-6.93-18.24-4.67-4.96-11-7.8-17.8-8-.25,0-.51-.01-.77-.01Z"/>
</svg>