<?xml version="1.0" encoding="UTF-8"?>
<svg id="Layer_1" xmlns="http://www.w3.org/2000/svg" version="1.1" viewBox="0 0 200 200">
  <!-- Generator: Adobe Illustrator 29.0.1, SVG Export Plug-In . SVG Version: 2.1.0 Build 192)  -->
  <defs>
    <style>
      .st0 {
        fill: none;
        stroke: #0c73b2;
        stroke-linecap: round;
        stroke-linejoin: round;
        stroke-width: 4.25px;
      }
    </style>
  </defs>
  <g>
    <path class="st0" d="M156.17,149.36c2.12,2.32,3.42,5.4,3.42,8.77,0,4.53-2.32,8.53-5.84,10.85,1.86,2.38,2.82,5.31,2.73,8.39-.2,6.94-6.21,12.6-13.38,12.6h-44.57c-2.06,0-4.1-.35-6.06-1.01l-8.4-2.85c-.47,5.8-5.34,10.37-11.26,10.37h-29.27c-6.22,0-11.29-5.06-11.29-11.3v-71.77c0-6.24,5.06-11.3,11.29-11.3h29.27c5.6,0,10.25,4.1,11.14,9.46l5.17-6.21c6.15-7.38,10.62-15.8,13.3-25.05l1.89-6.48c.9-3.1,3.31-5.48,6.3-6.22,2.88-.7,5.89.06,8.47,2.17,4.41,3.58,7.2,10.59,6.96,17.44-.29,7.75-1.43,14.4-3.49,20.29h25.61c7.17,0,13,5.83,13,13,0,3.69-1.56,7.03-4.04,9.4.12.12.24.24.38.38,2.46,2.53,3.77,5.89,3.66,9.44-.12,3.87-2.04,7.35-4.97,9.66Z"/>
    <path class="st0" d="M58.91,38.34l-9.93,9.69,2.35,13.67c.23,1.34-.32,2.7-1.42,3.49-.63.46-1.37.69-2.1.69-.58,0-1.14-.14-1.66-.41l-12.28-6.45-12.28,6.45c-1.21.64-2.65.53-3.77-.27-1.1-.79-1.65-2.15-1.42-3.49l2.35-13.67-9.93-9.69c-.98-.95-1.33-2.36-.92-3.66.43-1.3,1.54-2.24,2.9-2.44l13.71-2,6.15-12.43c.59-1.22,1.85-1.98,3.2-1.98s2.61.76,3.2,1.98l6.15,12.43,13.71,2c1.36.2,2.47,1.14,2.9,2.44.41,1.3.06,2.72-.92,3.66Z"/>
    <path class="st0" d="M127.84,28.87l-11.32,11.04,2.67,15.59c.23,1.34-.32,2.7-1.42,3.49-.63.46-1.37.69-2.11.69-.58,0-1.14-.14-1.66-.41l-14-7.35-14,7.35c-1.21.64-2.67.53-3.77-.27-1.1-.79-1.66-2.15-1.43-3.49l2.68-15.59-11.33-11.04c-.98-.95-1.33-2.38-.9-3.68.41-1.28,1.54-2.23,2.88-2.43l15.65-2.27,7-14.19c.61-1.22,1.85-2,3.22-2s2.59.78,3.2,2l7,14.19,15.65,2.27c1.36.2,2.47,1.14,2.9,2.43.41,1.3.06,2.73-.92,3.68Z"/>
    <path class="st0" d="M191.19,38.34l-9.93,9.69,2.33,13.67c.24,1.34-.32,2.7-1.42,3.49-.63.46-1.36.69-2.11.69-.56,0-1.13-.14-1.66-.41l-12.26-6.45-12.28,6.45c-1.21.64-2.67.53-3.77-.27-1.1-.79-1.66-2.15-1.42-3.49l2.33-13.67-9.93-9.69c-.98-.95-1.33-2.36-.9-3.66.41-1.3,1.54-2.24,2.88-2.44l13.73-2,6.13-12.43c.61-1.22,1.85-2,3.22-2s2.59.78,3.2,2l6.13,12.43,13.73,2c1.34.2,2.46,1.14,2.88,2.44.43,1.3.08,2.72-.9,3.66Z"/>
  </g>
  <line class="st0" x1="83.94" y1="111.56" x2="83.94" y2="186.11"/>
</svg>