<?xml version="1.0" encoding="UTF-8"?>
<svg id="Layer_1" data-name="Layer 1" xmlns="http://www.w3.org/2000/svg" viewBox="0 0 200 200">
  <defs>
    <style>
      .cls-1 {
        fill: none;
        stroke: #0c73b2;
        stroke-linecap: round;
        stroke-linejoin: round;
        stroke-width: 4.25px;
      }
    </style>
  </defs>
  <g>
    <g>
      <path class="cls-1" d="M94.31,95h11.36c20.82,0,37.73,16.9,37.73,37.73v23.32H56.58v-23.32c0-20.82,16.9-37.73,37.73-37.73Z"/>
      <g>
        <line class="cls-1" x1="79.41" y1="128.6" x2="79.41" y2="156.04"/>
        <line class="cls-1" x1="120.57" y1="128.6" x2="120.57" y2="156.04"/>
      </g>
      <circle class="cls-1" cx="99.99" cy="69.41" r="19.76"/>
    </g>
    <path class="cls-1" d="M49.23,113.55c-27.11,7.93-45.16,22.01-45.16,38.07,0,24.78,42.95,44.87,95.93,44.87s95.93-20.09,95.93-44.87c0-16.06-18.05-30.14-45.16-38.07"/>
    <path class="cls-1" d="M150.75,130.71c12.86,5.17,20.81,12.28,20.81,20.14,0,15.77-32.04,28.56-71.57,28.56s-71.57-12.79-71.57-28.56c0-7.86,7.95-14.97,20.81-20.14"/>
  </g>
  <g>
    <g>
      <g>
        <line class="cls-1" x1="184.42" y1="96.19" x2="154.37" y2="96.19"/>
        <polyline class="cls-1" points="163.15 89.25 154.37 96.19 163.15 103.6"/>
      </g>
      <g>
        <line class="cls-1" x1="165.8" y1="34.9" x2="142.95" y2="54.42"/>
        <polyline class="cls-1" points="145.11 43.45 142.95 54.42 154.43 54.36"/>
      </g>
    </g>
    <g>
      <line class="cls-1" x1="100.41" y1="4.41" x2="100.41" y2="34.45"/>
      <polyline class="cls-1" points="93.47 25.68 100.41 34.45 107.82 25.68"/>
    </g>
    <g>
      <g>
        <line class="cls-1" x1="16.87" y1="96.19" x2="46.92" y2="96.19"/>
        <polyline class="cls-1" points="38.15 89.25 46.92 96.19 38.15 103.6"/>
      </g>
      <g>
        <line class="cls-1" x1="35.5" y1="34.9" x2="58.35" y2="54.42"/>
        <polyline class="cls-1" points="56.18 43.45 58.35 54.42 46.86 54.36"/>
      </g>
    </g>
  </g>
</svg>